<svg width="314" height="64" viewBox="0 0 314 64" fill="none" xmlns="http://www.w3.org/2000/svg">
<path d="M32.028 41.196L34.863 45.354C33.183 46.32 31.377 47.097 29.445 47.685C27.555 48.231 25.539 48.504 23.397 48.504C20.289 48.504 17.37 47.916 14.64 46.74C11.91 45.564 9.516 43.968 7.458 41.952C5.442 39.894 3.846 37.5 2.67 34.77C1.494 32.04 0.906 29.121 0.906 26.013C0.906 22.905 1.494 19.986 2.67 17.256C3.846 14.484 5.442 12.09 7.458 10.074C9.516 8.016 11.91 6.399 14.64 5.223C17.37 4.005 20.289 3.396 23.397 3.396C25.539 3.396 27.555 3.669 29.445 4.215C31.377 4.761 33.204 5.538 34.926 6.546C34.464 7.26 33.981 7.974 33.477 8.688C32.973 9.36 32.49 10.053 32.028 10.767C30.726 10.011 29.361 9.423 27.933 9.003C26.505 8.583 24.993 8.373 23.397 8.373C21.003 8.373 18.756 8.835 16.656 9.759C14.598 10.683 12.771 11.964 11.175 13.602C9.621 15.198 8.382 17.067 7.458 19.209C6.576 21.351 6.135 23.619 6.135 26.013C6.135 28.407 6.576 30.675 7.458 32.817C8.382 34.959 9.621 36.828 11.175 38.424C12.771 39.978 14.598 41.217 16.656 42.141C18.756 43.065 21.003 43.527 23.397 43.527C26.505 43.527 29.382 42.75 32.028 41.196ZM41.4731 36.156C41.4731 34.476 41.7881 32.88 42.4181 31.368C43.0901 29.856 43.9931 28.554 45.1271 27.462C46.2611 26.328 47.5841 25.446 49.0961 24.816C50.6501 24.144 52.3091 23.808 54.0731 23.808C55.8371 23.808 57.4961 24.144 59.0501 24.816C60.6041 25.446 61.9481 26.328 63.0821 27.462C64.2161 28.554 65.0981 29.856 65.7281 31.368C66.4001 32.88 66.7361 34.476 66.7361 36.156C66.7361 37.878 66.4001 39.495 65.7281 41.007C65.0981 42.477 64.2161 43.779 63.0821 44.913C61.9481 46.047 60.6041 46.95 59.0501 47.622C57.4961 48.252 55.8371 48.567 54.0731 48.567C52.3091 48.567 50.6501 48.252 49.0961 47.622C47.5841 46.95 46.2611 46.047 45.1271 44.913C43.9931 43.779 43.0901 42.477 42.4181 41.007C41.7881 39.495 41.4731 37.878 41.4731 36.156ZM46.7021 36.219C46.7021 37.227 46.8911 38.172 47.2691 39.054C47.6471 39.936 48.1511 40.713 48.7811 41.385C49.4531 42.015 50.2301 42.519 51.1121 42.897C51.9941 43.275 52.9391 43.464 53.9471 43.464C54.9551 43.464 55.9001 43.275 56.7821 42.897C57.6641 42.519 58.4411 42.015 59.1131 41.385C59.7851 40.713 60.3101 39.936 60.6881 39.054C61.0661 38.172 61.2551 37.227 61.2551 36.219C61.2551 35.211 61.0661 34.266 60.6881 33.384C60.3101 32.502 59.7851 31.725 59.1131 31.053C58.4411 30.381 57.6641 29.856 56.7821 29.478C55.9001 29.1 54.9551 28.911 53.9471 28.911C52.9391 28.911 51.9941 29.1 51.1121 29.478C50.2301 29.856 49.4531 30.381 48.7811 31.053C48.1511 31.725 47.6471 32.502 47.2691 33.384C46.8911 34.266 46.7021 35.211 46.7021 36.219ZM70.4915 28.911V23.808H74.5235V15.429C74.5235 13.077 74.9015 10.998 75.6575 9.192C76.4555 7.386 77.5265 5.874 78.8705 4.656C80.2145 3.396 81.8105 2.451 83.6585 1.821C85.5485 1.149 87.5645 0.770998 89.7065 0.686997V5.664C86.8085 5.832 84.4145 6.756 82.5245 8.436C80.6765 10.116 79.7525 12.51 79.7525 15.618V23.808H87.1235V28.911H79.7525V48H74.5235V28.911H70.4915ZM90.3635 28.911V23.808H94.3955V15.429C94.3955 13.077 94.7735 10.998 95.5295 9.192C96.3275 7.386 97.3985 5.874 98.7425 4.656C100.087 3.396 101.683 2.451 103.531 1.821C105.421 1.149 107.437 0.770998 109.579 0.686997V5.664C106.681 5.832 104.287 6.756 102.397 8.436C100.549 10.116 99.6245 12.51 99.6245 15.618V23.808H106.996V28.911H99.6245V48H94.3955V28.911H90.3635ZM124.517 28.911C122.837 28.911 121.388 29.331 120.17 30.171C118.952 31.011 118.091 32.103 117.587 33.447C117.377 34.077 117.23 34.812 117.146 35.652C119.12 34.938 121.073 34.224 123.005 33.51C124.979 32.754 126.953 32.019 128.927 31.305C128.339 30.591 127.667 30.024 126.911 29.604C126.197 29.142 125.399 28.911 124.517 28.911ZM135.605 34.266C132.749 35.316 129.893 36.366 127.037 37.416C124.223 38.466 121.388 39.516 118.532 40.566C119.162 41.448 119.981 42.162 120.989 42.708C122.039 43.212 123.215 43.464 124.517 43.464C126.449 43.464 128.045 42.792 129.305 41.448L132.518 45.228C131.468 46.278 130.271 47.097 128.927 47.685C127.583 48.273 126.113 48.567 124.517 48.567C122.753 48.567 121.094 48.252 119.54 47.622C118.028 46.95 116.705 46.047 115.571 44.913C114.437 43.779 113.534 42.477 112.862 41.007C112.232 39.495 111.917 37.878 111.917 36.156C111.917 34.476 112.232 32.88 112.862 31.368C113.534 29.856 114.437 28.554 115.571 27.462C116.705 26.328 118.028 25.446 119.54 24.816C121.094 24.144 122.753 23.808 124.517 23.808C125.819 23.808 127.058 24.081 128.234 24.627C129.452 25.131 130.523 25.845 131.447 26.769C132.413 27.693 133.253 28.806 133.967 30.108C134.681 31.368 135.227 32.754 135.605 34.266ZM152.941 28.911C151.261 28.911 149.812 29.331 148.594 30.171C147.376 31.011 146.515 32.103 146.011 33.447C145.801 34.077 145.654 34.812 145.57 35.652C147.544 34.938 149.497 34.224 151.429 33.51C153.403 32.754 155.377 32.019 157.351 31.305C156.763 30.591 156.091 30.024 155.335 29.604C154.621 29.142 153.823 28.911 152.941 28.911ZM164.029 34.266C161.173 35.316 158.317 36.366 155.461 37.416C152.647 38.466 149.812 39.516 146.956 40.566C147.586 41.448 148.405 42.162 149.413 42.708C150.463 43.212 151.639 43.464 152.941 43.464C154.873 43.464 156.469 42.792 157.729 41.448L160.942 45.228C159.892 46.278 158.695 47.097 157.351 47.685C156.007 48.273 154.537 48.567 152.941 48.567C151.177 48.567 149.518 48.252 147.964 47.622C146.452 46.95 145.129 46.047 143.995 44.913C142.861 43.779 141.958 42.477 141.286 41.007C140.656 39.495 140.341 37.878 140.341 36.156C140.341 34.476 140.656 32.88 141.286 31.368C141.958 29.856 142.861 28.554 143.995 27.462C145.129 26.328 146.452 25.446 147.964 24.816C149.518 24.144 151.177 23.808 152.941 23.808C154.243 23.808 155.482 24.081 156.658 24.627C157.876 25.131 158.947 25.845 159.871 26.769C160.837 27.693 161.677 28.806 162.391 30.108C163.105 31.368 163.651 32.754 164.029 34.266ZM213.672 8.247C213.168 8.877 212.664 9.507 212.16 10.137C211.698 10.767 211.215 11.397 210.711 12.027C210.375 11.691 209.934 11.334 209.388 10.956C208.842 10.536 208.212 10.158 207.498 9.822C206.826 9.486 206.049 9.213 205.167 9.003C204.327 8.751 203.424 8.625 202.458 8.625C200.022 8.625 198.216 9.318 197.04 10.704C195.864 12.09 195.276 13.728 195.276 15.618C195.276 16.668 195.465 17.55 195.843 18.264C196.263 18.978 196.788 19.587 197.418 20.091C198.09 20.553 198.825 20.952 199.623 21.288C200.463 21.624 201.324 21.939 202.206 22.233C203.592 22.737 205.083 23.346 206.679 24.06C208.275 24.732 209.745 25.614 211.089 26.706C212.475 27.756 213.609 29.058 214.491 30.612C215.415 32.166 215.877 34.035 215.877 36.219C215.877 38.109 215.52 39.81 214.806 41.322C214.134 42.834 213.189 44.136 211.971 45.228C210.795 46.278 209.409 47.097 207.813 47.685C206.217 48.231 204.537 48.504 202.773 48.504C201.177 48.504 199.623 48.294 198.111 47.874C196.599 47.412 195.213 46.845 193.953 46.173C192.693 45.459 191.559 44.682 190.551 43.842C189.585 43.002 188.829 42.162 188.283 41.322L191.559 38.046C192.105 38.634 192.756 39.264 193.512 39.936C194.268 40.566 195.087 41.154 195.969 41.7C196.851 42.246 197.817 42.687 198.867 43.023C199.917 43.359 201.051 43.527 202.269 43.527C203.361 43.527 204.411 43.38 205.419 43.086C206.427 42.75 207.309 42.288 208.065 41.7C208.863 41.07 209.493 40.293 209.955 39.369C210.417 38.445 210.648 37.374 210.648 36.156C210.648 34.476 210.228 33.111 209.388 32.061C208.59 31.011 207.582 30.15 206.364 29.478C205.188 28.764 203.949 28.197 202.647 27.777C201.345 27.357 200.211 26.958 199.245 26.58C198.489 26.286 197.586 25.887 196.536 25.383C195.486 24.879 194.478 24.207 193.512 23.367C192.588 22.485 191.79 21.414 191.118 20.154C190.446 18.852 190.089 17.277 190.047 15.429C190.005 14.043 190.194 12.657 190.614 11.271C191.034 9.885 191.727 8.625 192.693 7.491C193.659 6.357 194.94 5.433 196.536 4.719C198.132 4.005 200.085 3.648 202.395 3.648C204.075 3.648 205.818 3.942 207.624 4.53C209.43 5.118 211.446 6.357 213.672 8.247ZM226.05 0.749996H231.279V27.588L231.09 30.423C232.014 28.365 233.358 26.79 235.122 25.698C236.886 24.564 238.965 23.934 241.359 23.808C243.837 23.808 245.79 24.459 247.218 25.761C248.646 27.063 249.402 28.764 249.486 30.864V48H244.257V33.258C244.173 32.124 243.753 31.158 242.997 30.36C242.283 29.52 241.128 29.058 239.532 28.974C238.44 28.974 237.39 29.163 236.382 29.541C235.416 29.919 234.555 30.444 233.799 31.116C233.043 31.788 232.434 32.586 231.972 33.51C231.51 34.434 231.279 35.442 231.279 36.534V48H226.05V0.749996ZM256.251 36.156C256.251 34.476 256.566 32.88 257.196 31.368C257.868 29.856 258.771 28.554 259.905 27.462C261.039 26.328 262.362 25.446 263.874 24.816C265.428 24.144 267.087 23.808 268.851 23.808C270.615 23.808 272.274 24.144 273.828 24.816C275.382 25.446 276.726 26.328 277.86 27.462C278.994 28.554 279.876 29.856 280.506 31.368C281.178 32.88 281.514 34.476 281.514 36.156C281.514 37.878 281.178 39.495 280.506 41.007C279.876 42.477 278.994 43.779 277.86 44.913C276.726 46.047 275.382 46.95 273.828 47.622C272.274 48.252 270.615 48.567 268.851 48.567C267.087 48.567 265.428 48.252 263.874 47.622C262.362 46.95 261.039 46.047 259.905 44.913C258.771 43.779 257.868 42.477 257.196 41.007C256.566 39.495 256.251 37.878 256.251 36.156ZM261.48 36.219C261.48 37.227 261.669 38.172 262.047 39.054C262.425 39.936 262.929 40.713 263.559 41.385C264.231 42.015 265.008 42.519 265.89 42.897C266.772 43.275 267.717 43.464 268.725 43.464C269.733 43.464 270.678 43.275 271.56 42.897C272.442 42.519 273.219 42.015 273.891 41.385C274.563 40.713 275.088 39.936 275.466 39.054C275.844 38.172 276.033 37.227 276.033 36.219C276.033 35.211 275.844 34.266 275.466 33.384C275.088 32.502 274.563 31.725 273.891 31.053C273.219 30.381 272.442 29.856 271.56 29.478C270.678 29.1 269.733 28.911 268.725 28.911C267.717 28.911 266.772 29.1 265.89 29.478C265.008 29.856 264.231 30.381 263.559 31.053C262.929 31.725 262.425 32.502 262.047 33.384C261.669 34.266 261.48 35.211 261.48 36.219ZM308.076 36.156C308.076 34.056 307.383 32.334 305.997 30.99C304.653 29.604 302.889 28.911 300.705 28.911C298.521 28.911 296.736 29.604 295.35 30.99C294.006 32.334 293.334 34.056 293.334 36.156C293.334 38.214 294.006 39.957 295.35 41.385C296.736 42.771 298.521 43.464 300.705 43.464C302.889 43.464 304.653 42.771 305.997 41.385C307.383 39.957 308.076 38.214 308.076 36.156ZM313.368 36.156C313.368 37.836 313.032 39.432 312.36 40.944C311.73 42.456 310.848 43.779 309.714 44.913C308.58 46.047 307.236 46.95 305.682 47.622C304.128 48.252 302.469 48.567 300.705 48.567C299.445 48.567 298.311 48.42 297.303 48.126C296.337 47.832 295.518 47.517 294.846 47.181C294.174 46.803 293.649 46.446 293.271 46.11C292.893 45.774 292.704 45.543 292.704 45.417C292.788 45.627 292.893 45.858 293.019 46.11C293.145 46.362 293.25 46.593 293.334 46.803V63.75H288.105V24.375H292.452C292.452 24.879 292.473 25.383 292.515 25.887C292.599 26.349 292.662 26.832 292.704 27.336C292.704 27.21 292.914 26.958 293.334 26.58C293.754 26.202 294.321 25.824 295.035 25.446C295.749 25.026 296.589 24.648 297.555 24.312C298.521 23.976 299.571 23.808 300.705 23.808C302.469 23.808 304.128 24.144 305.682 24.816C307.236 25.446 308.58 26.328 309.714 27.462C310.848 28.596 311.73 29.919 312.36 31.431C313.032 32.901 313.368 34.476 313.368 36.156Z" fill="black"/>
</svg>
