<svg width="415" height="40" viewBox="0 0 415 40" fill="none" xmlns="http://www.w3.org/2000/svg">
<path d="M5.44141 26.0156C5.44141 25.9245 5.44141 25.8424 5.44141 25.7695C5.45964 25.6966 5.50521 25.6237 5.57812 25.5508C5.61458 25.5508 5.66927 25.5508 5.74219 25.5508C5.83333 25.5326 5.89714 25.5234 5.93359 25.5234C6.26172 25.5234 6.57161 25.5508 6.86328 25.6055C7.17318 25.6602 7.49219 25.6875 7.82031 25.6875C8.42188 25.6875 8.99609 25.6055 9.54297 25.4414C10.0898 25.2773 10.5729 25.0404 10.9922 24.7305C11.4297 24.4023 11.776 24.0013 12.0312 23.5273C12.2865 23.0352 12.4141 22.4609 12.4141 21.8047C12.4141 21.4219 12.3503 21.0391 12.2227 20.6562C12.1133 20.2734 11.9583 19.8997 11.7578 19.5352C11.5573 19.1706 11.3294 18.8333 11.0742 18.5234C10.819 18.1953 10.5456 17.9128 10.2539 17.6758L4.12891 12.6172C4.09245 12.5625 4.0013 12.4714 3.85547 12.3438C3.72786 12.1979 3.6276 12.1068 3.55469 12.0703L3.52734 12.125C3.50911 12.125 3.49089 12.125 3.47266 12.125H3.44531V22.8711L3.30859 24.8672C3.30859 25.0312 3.22656 25.1589 3.0625 25.25C2.89844 25.3229 2.76172 25.3776 2.65234 25.4141C2.43359 25.4323 2.26953 25.3958 2.16016 25.3047C2.06901 25.2135 1.99609 25.0859 1.94141 24.9219C1.88672 24.7578 1.85938 24.5846 1.85938 24.4023C1.85938 24.2201 1.85938 24.0651 1.85938 23.9375V10.0742C1.49479 9.50911 1.19401 8.9349 0.957031 8.35156C0.738281 7.76823 0.628906 7.13932 0.628906 6.46484C0.628906 6.30078 0.638021 6.08203 0.65625 5.80859C0.674479 5.53516 0.710938 5.27083 0.765625 5.01562C0.838542 4.74219 0.947917 4.51432 1.09375 4.33203C1.25781 4.13151 1.47656 4.03125 1.75 4.03125C1.93229 4.03125 2.0599 4.10417 2.13281 4.25C2.22396 4.39583 2.26953 4.55078 2.26953 4.71484C2.26953 4.98828 2.24219 5.24349 2.1875 5.48047C2.13281 5.71745 2.10547 5.97266 2.10547 6.24609C2.10547 6.41016 2.09635 6.61979 2.07812 6.875C2.07812 7.13021 2.13281 7.34896 2.24219 7.53125C2.26042 7.3125 2.26953 7.02083 2.26953 6.65625C2.28776 6.29167 2.33333 5.9362 2.40625 5.58984C2.47917 5.24349 2.59766 4.94271 2.76172 4.6875C2.94401 4.43229 3.21745 4.30469 3.58203 4.30469C3.72786 4.30469 3.85547 4.34115 3.96484 4.41406C4.07422 4.46875 4.12891 4.57812 4.12891 4.74219V7.53125C3.91016 7.76823 3.78255 8.04167 3.74609 8.35156C3.72786 8.64323 3.71875 8.9349 3.71875 9.22656V9.58203C3.71875 9.63672 3.72786 9.70964 3.74609 9.80078C3.76432 9.85547 3.80078 9.92839 3.85547 10.0195C3.92839 10.1107 4.0013 10.2201 4.07422 10.3477C4.16536 10.457 4.2474 10.5664 4.32031 10.6758C4.39323 10.7669 4.45703 10.8398 4.51172 10.8945L10.6641 15.9258C11.5938 16.7096 12.3594 17.5938 12.9609 18.5781C13.5625 19.5443 13.8633 20.638 13.8633 21.8594C13.8633 22.6615 13.6992 23.3815 13.3711 24.0195C13.043 24.6393 12.6055 25.1771 12.0586 25.6328C11.5117 26.0703 10.8828 26.4076 10.1719 26.6445C9.47917 26.8815 8.75911 27 8.01172 27C7.86589 27 7.64714 26.9909 7.35547 26.9727C7.0638 26.9544 6.77214 26.918 6.48047 26.8633C6.20703 26.8086 5.96094 26.7174 5.74219 26.5898C5.54167 26.4622 5.44141 26.2708 5.44141 26.0156ZM13.9453 23.7461C14.4557 23.3633 14.8294 22.9896 15.0664 22.625C15.3216 22.2604 15.5221 21.8958 15.668 21.5312C15.8138 21.1667 15.9323 20.7839 16.0234 20.3828C16.1146 19.9635 16.2604 19.5078 16.4609 19.0156C16.388 18.888 16.3424 18.7786 16.3242 18.6875C16.3242 18.5781 16.3242 18.4505 16.3242 18.3047C16.3242 18.1589 16.3424 17.9857 16.3789 17.7852C16.4336 17.5846 16.5065 17.4023 16.5977 17.2383C16.6888 17.056 16.7982 16.901 16.9258 16.7734C17.0534 16.6458 17.2083 16.582 17.3906 16.582C17.3724 16.6549 17.4727 16.737 17.6914 16.8281C17.9284 16.9193 18.2109 17.0195 18.5391 17.1289C18.8854 17.2383 19.25 17.3568 19.6328 17.4844C20.0156 17.612 20.3529 17.7487 20.6445 17.8945C20.9727 18.0768 21.2005 18.2773 21.3281 18.4961C21.474 18.6966 21.5469 18.9883 21.5469 19.3711C21.5469 19.7174 21.5013 20.1094 21.4102 20.5469C21.3372 20.9844 21.2552 21.431 21.1641 21.8867C21.0911 22.3242 21.0091 22.7708 20.918 23.2266C20.8451 23.6641 20.8086 24.0651 20.8086 24.4297V25.1406C20.7904 25.3047 20.8268 25.3958 20.918 25.4141C21.0273 25.4141 21.1276 25.4141 21.2188 25.4141C21.4375 25.4141 21.638 25.3776 21.8203 25.3047C22.0026 25.2318 22.1849 25.1497 22.3672 25.0586C22.5677 24.9674 22.7591 24.8854 22.9414 24.8125C23.1237 24.7214 23.3151 24.6576 23.5156 24.6211L25.9219 23.1445C25.9948 23.0169 26.0859 22.9167 26.1953 22.8438C26.3229 22.7526 26.4414 22.6706 26.5508 22.5977C26.7331 22.4883 26.9518 22.3333 27.207 22.1328C27.3346 22.0234 27.4714 21.9141 27.6172 21.8047H28.4375C28.4922 21.8047 28.5286 21.8594 28.5469 21.9688C28.5651 22.0781 28.5742 22.1602 28.5742 22.2148C28.5742 22.4336 28.4193 22.707 28.1094 23.0352C27.7995 23.3633 27.3984 23.7005 26.9062 24.0469C26.4141 24.3932 25.8672 24.7396 25.2656 25.0859C24.6641 25.4141 24.0716 25.7148 23.4883 25.9883C22.9232 26.2617 22.3945 26.4805 21.9023 26.6445C21.4284 26.8086 21.0638 26.8906 20.8086 26.8906C20.4805 26.8906 20.2161 26.8086 20.0156 26.6445C19.8151 26.4805 19.651 26.2799 19.5234 26.043C19.3958 25.806 19.3047 25.5508 19.25 25.2773C19.2135 24.9857 19.1953 24.7031 19.1953 24.4297C19.1953 24.2292 19.2591 23.9466 19.3867 23.582C19.5143 23.2174 19.6602 22.8438 19.8242 22.4609C19.9883 22.0781 20.1341 21.7044 20.2617 21.3398C20.3893 20.9753 20.4531 20.6836 20.4531 20.4648C20.4531 20.4466 20.3164 20.3737 20.043 20.2461C19.7878 20.1185 19.5052 19.9818 19.1953 19.8359C18.8854 19.6719 18.5938 19.5352 18.3203 19.4258C18.0651 19.2982 17.9375 19.2253 17.9375 19.207C17.5365 19.6263 17.2539 20.0729 17.0898 20.5469C16.944 21.0208 16.7891 21.513 16.625 22.0234C16.4792 22.5339 16.2513 23.0443 15.9414 23.5547C15.6497 24.0651 15.1484 24.5664 14.4375 25.0586C14.4193 25.0586 14.3828 25.0495 14.3281 25.0312C14.2552 25.013 14.1914 24.9674 14.1367 24.8945C14.0638 24.8034 14.0091 24.6758 13.9727 24.5117C13.9362 24.3294 13.9271 24.0742 13.9453 23.7461ZM27.5625 21.2578C27.5807 21.1667 27.6354 21.0026 27.7266 20.7656C27.8177 20.5286 27.9089 20.2734 28 20C28.1094 19.7266 28.2096 19.4714 28.3008 19.2344C28.3919 18.9974 28.4557 18.8333 28.4922 18.7422C28.6016 18.4505 28.7018 18.2591 28.793 18.168C28.9023 18.0768 29.0938 18.0312 29.3672 18.0312C29.6589 18.0312 29.8503 18.1315 29.9414 18.332C30.0326 18.5326 30.0781 18.7695 30.0781 19.043C30.0781 19.5169 30.0052 19.9544 29.8594 20.3555C29.7318 20.7383 29.5859 21.1302 29.4219 21.5312C29.2578 21.9141 29.1029 22.3333 28.957 22.7891C28.8294 23.2266 28.7656 23.737 28.7656 24.3203C28.7656 24.3932 28.7656 24.5026 28.7656 24.6484C28.7656 24.776 28.7747 24.9128 28.793 25.0586C28.8112 25.1862 28.8477 25.3047 28.9023 25.4141C28.957 25.5052 29.0299 25.5508 29.1211 25.5508C29.5951 25.5508 30.069 25.4596 30.543 25.2773C31.0352 25.0768 31.5091 24.849 31.9648 24.5938C32.4388 24.3203 32.8854 24.0286 33.3047 23.7188C33.7422 23.3906 34.1341 23.1081 34.4805 22.8711C34.6081 22.7799 34.6992 22.6888 34.7539 22.5977C34.8268 22.5065 34.8906 22.4245 34.9453 22.3516C35 22.2604 35.0638 22.1875 35.1367 22.1328C35.2279 22.0599 35.3646 22.0234 35.5469 22.0234C35.7839 22.0234 35.9753 22.0781 36.1211 22.1875C36.2852 22.2786 36.3672 22.4518 36.3672 22.707C36.3672 22.8164 36.3581 22.9167 36.3398 23.0078C36.3398 23.099 36.2943 23.181 36.2031 23.2539C36.1849 23.3086 36.112 23.3815 35.9844 23.4727C35.875 23.5638 35.7565 23.6641 35.6289 23.7734C35.5013 23.8646 35.3828 23.9557 35.2734 24.0469C35.1641 24.1198 35.082 24.1654 35.0273 24.1836C35.0091 24.1836 34.9544 24.2109 34.8633 24.2656C34.7904 24.3021 34.7448 24.3203 34.7266 24.3203C34.7083 24.3385 34.681 24.3659 34.6445 24.4023C34.6263 24.4206 34.6172 24.4388 34.6172 24.457C34.2344 24.7487 33.8151 25.0495 33.3594 25.3594C32.9219 25.651 32.457 25.9245 31.9648 26.1797C31.4727 26.4167 30.9622 26.6172 30.4336 26.7812C29.9232 26.9453 29.4128 27.0273 28.9023 27.0273C28.4648 27.0273 28.1276 26.918 27.8906 26.6992C27.6719 26.4622 27.5078 26.1706 27.3984 25.8242C27.2891 25.4779 27.2253 25.1133 27.207 24.7305C27.1888 24.3477 27.1797 24.0013 27.1797 23.6914L27.5625 21.2578ZM28.875 14.0664C28.875 13.7383 28.9388 13.5195 29.0664 13.4102C29.194 13.3008 29.4219 13.2461 29.75 13.2461C29.9141 13.2461 30.0781 13.2826 30.2422 13.3555C30.4062 13.4102 30.4883 13.556 30.4883 13.793C30.4883 14.0299 30.3698 14.2487 30.1328 14.4492C29.9141 14.6497 29.6953 14.75 29.4766 14.75C29.2578 14.75 29.1029 14.6862 29.0117 14.5586C28.9206 14.4128 28.875 14.2487 28.875 14.0664ZM36.9688 26.4531L37.8984 20.9844V20.2188L38.4453 16.582C38.5 16.5091 38.6003 16.4727 38.7461 16.4727C38.8919 16.4544 38.9922 16.4453 39.0469 16.4453C39.1927 16.4453 39.3568 16.5 39.5391 16.6094C39.7396 16.7005 39.8398 16.8281 39.8398 16.9922V18.8516C39.9128 18.7969 40.0404 18.6875 40.2227 18.5234C40.4049 18.3594 40.5964 18.1862 40.7969 18.0039C41.0156 17.8216 41.2161 17.6484 41.3984 17.4844C41.5807 17.3203 41.6992 17.2018 41.7539 17.1289C41.9544 16.9466 42.1914 16.7917 42.4648 16.6641C42.7565 16.5365 43.0299 16.4727 43.2852 16.4727C43.8138 16.4727 44.224 16.6367 44.5156 16.9648C44.8255 17.293 44.9805 17.7122 44.9805 18.2227C44.9805 18.2591 44.9714 18.2865 44.9531 18.3047C44.9531 18.3047 44.9531 18.3229 44.9531 18.3594V18.4688L43.9141 23.1445V25.3594C44.4792 25.3594 45.0625 25.25 45.6641 25.0312C46.2839 24.7943 46.8763 24.5026 47.4414 24.1562C48.0065 23.8099 48.5352 23.418 49.0273 22.9805C49.5195 22.5247 49.9479 22.0872 50.3125 21.668H50.4219C50.5495 21.668 50.6497 21.7135 50.7227 21.8047C50.8138 21.8776 50.8594 21.9779 50.8594 22.1055C50.8594 22.5065 50.7227 22.9076 50.4492 23.3086C50.194 23.6914 49.8568 24.056 49.4375 24.4023C49.0365 24.7487 48.5625 25.0768 48.0156 25.3867C47.487 25.6966 46.9583 25.9609 46.4297 26.1797C45.9193 26.3984 45.418 26.5716 44.9258 26.6992C44.4336 26.8268 44.0143 26.8906 43.668 26.8906C43.3216 26.8906 43.0482 26.8268 42.8477 26.6992C42.6471 26.5716 42.4922 26.4076 42.3828 26.207C42.2917 25.9883 42.2279 25.7513 42.1914 25.4961C42.1732 25.2409 42.1641 24.9674 42.1641 24.6758V24.3203L43.2305 19.0156V18.1133C42.793 18.1133 42.3555 18.3047 41.918 18.6875C41.4987 19.0703 41.1159 19.5352 40.7695 20.082C40.4414 20.6289 40.1497 21.1849 39.8945 21.75C39.6576 22.3151 39.4844 22.7799 39.375 23.1445C39.3385 23.2721 39.2839 23.5 39.2109 23.8281C39.138 24.1562 39.0651 24.5026 38.9922 24.8672C38.9375 25.2318 38.8828 25.5781 38.8281 25.9062C38.7734 26.2344 38.737 26.4714 38.7188 26.6172C38.737 26.7266 38.7005 26.8086 38.6094 26.8633C38.5365 26.918 38.4453 26.9635 38.3359 27C38.2266 27.0182 38.1081 27.0273 37.9805 27.0273C37.8711 27.0273 37.7799 27.0273 37.707 27.0273C37.543 27.0273 37.3789 27 37.2148 26.9453C37.0508 26.8906 36.9688 26.7539 36.9688 26.5352V26.4531ZM49.8203 26.8906C49.8021 26.8359 49.793 26.7174 49.793 26.5352C49.793 26.3529 49.793 26.2344 49.793 26.1797C49.793 25.5964 49.8932 25.0312 50.0938 24.4844C50.3125 23.9193 50.5768 23.3815 50.8867 22.8711L52.3633 19.0156L53.8125 13.6562L55.0156 11.2773C55.0521 11.1862 55.1159 11.1406 55.207 11.1406C55.3164 11.1406 55.4167 11.1406 55.5078 11.1406C55.8906 11.1406 56.1276 11.2865 56.2188 11.5781C56.3099 11.8516 56.3555 12.1341 56.3555 12.4258C56.3555 13.5195 56.1914 14.5495 55.8633 15.5156C55.5352 16.4635 55.1159 17.4023 54.6055 18.332C54.9336 18.1315 55.2617 17.9674 55.5898 17.8398C55.9362 17.7122 56.3008 17.6484 56.6836 17.6484C57.1576 17.6484 57.5404 17.7396 57.832 17.9219C58.1237 18.0859 58.4336 18.3594 58.7617 18.7422C58.7799 18.7786 58.7891 18.8971 58.7891 19.0977C58.7891 19.2982 58.7891 19.4258 58.7891 19.4805C58.7891 20.0273 58.6615 20.5469 58.4062 21.0391C58.151 21.5312 57.8229 21.9779 57.4219 22.3789C57.0208 22.7799 56.5742 23.1445 56.082 23.4727C55.5898 23.7826 55.0977 24.0195 54.6055 24.1836V24.3203C54.6055 24.5026 54.6602 24.6667 54.7695 24.8125C54.8789 24.9401 55.0065 25.0586 55.1523 25.168C55.2982 25.2591 55.4531 25.332 55.6172 25.3867C55.7812 25.4232 55.9362 25.4414 56.082 25.4414C56.4831 25.4414 56.9023 25.4232 57.3398 25.3867C57.7773 25.3503 58.2057 25.2865 58.625 25.1953C59.0625 25.0859 59.4727 24.9583 59.8555 24.8125C60.2383 24.6484 60.5846 24.4388 60.8945 24.1836C61.0404 24.0742 61.1953 23.901 61.3594 23.6641C61.5234 23.4271 61.6784 23.1901 61.8242 22.9531C61.9883 22.7161 62.1341 22.5065 62.2617 22.3242C62.4076 22.1419 62.5169 22.0508 62.5898 22.0508C62.8086 22.0508 62.9635 22.151 63.0547 22.3516C63.1641 22.5339 63.2188 22.7161 63.2188 22.8984C63.2188 22.9167 63.2096 22.9622 63.1914 23.0352C63.1914 23.0898 63.1914 23.1263 63.1914 23.1445C62.8451 23.8737 62.444 24.4844 61.9883 24.9766C61.5508 25.4505 61.0495 25.8333 60.4844 26.125C59.9193 26.3984 59.2812 26.599 58.5703 26.7266C57.8776 26.8359 57.1029 26.8906 56.2461 26.8906C55.5169 26.8906 54.8971 26.763 54.3867 26.5078C53.8945 26.2344 53.4844 25.7786 53.1562 25.1406C53.138 25.0677 53.1016 24.9766 53.0469 24.8672C53.0104 24.7396 52.9648 24.6211 52.9102 24.5117C52.8737 24.3841 52.819 24.2656 52.7461 24.1562C52.6732 24.0469 52.582 23.974 52.4727 23.9375L51.1602 26.7266C51.1055 26.8542 50.9961 26.9362 50.832 26.9727C50.6862 27.0091 50.5495 27.0273 50.4219 27.0273C50.3125 27.0273 50.2031 27.0182 50.0938 27C50.0026 27 49.9115 26.9635 49.8203 26.8906ZM53.4297 21.7227C53.4297 21.7773 53.457 21.8685 53.5117 21.9961C53.5664 22.1237 53.6302 22.2513 53.7031 22.3789C53.776 22.5065 53.849 22.625 53.9219 22.7344C54.013 22.8255 54.0951 22.8711 54.168 22.8711C54.2409 22.8711 54.332 22.8529 54.4414 22.8164C54.5508 22.7617 54.6602 22.7161 54.7695 22.6797C54.8971 22.625 55.0065 22.5703 55.0977 22.5156C55.1888 22.4609 55.2617 22.4062 55.3164 22.3516C55.3711 22.2786 55.4714 22.1602 55.6172 21.9961C55.763 21.832 55.918 21.6589 56.082 21.4766C56.2643 21.2943 56.4284 21.1211 56.5742 20.957C56.7383 20.793 56.8385 20.6745 56.875 20.6016C56.8932 20.5651 56.9206 20.5013 56.957 20.4102C57.0117 20.319 57.0573 20.2279 57.0938 20.1367C57.1484 20.0456 57.194 19.9544 57.2305 19.8633C57.2669 19.7721 57.2943 19.7083 57.3125 19.6719C57.3125 19.6536 57.3125 19.6354 57.3125 19.6172C57.3125 19.5807 57.3125 19.5534 57.3125 19.5352C57.3125 19.4805 57.3034 19.4349 57.2852 19.3984C57.2852 19.3438 57.2396 19.2982 57.1484 19.2617H56.6289C56.4102 19.2617 56.2005 19.2799 56 19.3164C55.8177 19.3346 55.6263 19.4076 55.4258 19.5352C55.3711 19.5898 55.2617 19.6901 55.0977 19.8359C54.9336 19.9635 54.7695 20.1094 54.6055 20.2734C54.4414 20.4193 54.2773 20.5651 54.1133 20.7109C53.9492 20.8568 53.849 20.9479 53.8125 20.9844C53.776 21.0391 53.7031 21.1576 53.5938 21.3398C53.4844 21.5221 53.4297 21.6497 53.4297 21.7227ZM75.1953 23.2539C75.2865 22.3242 75.4961 21.4401 75.8242 20.6016C76.1706 19.763 76.5625 19.043 77 18.4414C77.4557 17.8398 77.9115 17.375 78.3672 17.0469C78.8411 16.7188 79.2513 16.6185 79.5977 16.7461C79.6888 16.6914 79.7617 16.6458 79.8164 16.6094C79.8893 16.5547 79.944 16.5091 79.9805 16.4727C80.0352 16.418 80.0898 16.3815 80.1445 16.3633C80.2174 16.3268 80.3177 16.3086 80.4453 16.3086C80.7005 16.3086 80.9284 16.3906 81.1289 16.5547C81.3294 16.7188 81.5026 16.9193 81.6484 17.1562C81.8125 17.3932 81.931 17.6484 82.0039 17.9219C82.0951 18.1771 82.1406 18.4141 82.1406 18.6328C82.1406 18.8698 82.0495 19.0339 81.8672 19.125C81.6849 19.2161 81.4753 19.2617 81.2383 19.2617C81.0924 19.2617 80.9648 19.2344 80.8555 19.1797C80.7461 19.1068 80.6458 19.0247 80.5547 18.9336C80.4818 18.8424 80.3997 18.7513 80.3086 18.6602C80.2174 18.569 80.099 18.5052 79.9531 18.4688H79.9258H79.8438C79.8255 18.487 79.7799 18.5326 79.707 18.6055C79.6523 18.6602 79.6159 18.7057 79.5977 18.7422C79.2148 19.1979 78.8594 19.6081 78.5312 19.9727C78.2031 20.319 77.9115 20.6745 77.6562 21.0391C77.4193 21.4036 77.2279 21.7956 77.082 22.2148C76.9544 22.6341 76.8906 23.1354 76.8906 23.7188C76.8906 23.7734 76.8906 23.8555 76.8906 23.9648C76.8906 24.0742 76.8906 24.1836 76.8906 24.293C76.9089 24.4023 76.918 24.5117 76.918 24.6211C76.918 24.7305 76.918 24.8125 76.918 24.8672C76.9544 25.0495 77.0547 25.1862 77.2188 25.2773C77.401 25.3685 77.5651 25.4596 77.7109 25.5508C77.7656 25.5508 77.9023 25.5599 78.1211 25.5781C78.3398 25.5781 78.4674 25.5781 78.5039 25.5781C79.1602 25.5781 79.9349 25.4779 80.8281 25.2773C81.7214 25.0586 82.6146 24.776 83.5078 24.4297C84.4193 24.0833 85.276 23.6732 86.0781 23.1992C86.8802 22.707 87.5182 22.1966 87.9922 21.668C88.1016 21.5221 88.1927 21.3216 88.2656 21.0664C88.3568 20.8112 88.4479 20.5651 88.5391 20.3281C88.6484 20.0729 88.7669 19.8542 88.8945 19.6719C89.0221 19.4896 89.2135 19.3984 89.4688 19.3984C89.7057 19.3984 89.8516 19.4987 89.9062 19.6992C89.9792 19.8815 90.0156 20.0638 90.0156 20.2461C90.0156 20.8294 89.8698 21.3581 89.5781 21.832C89.3047 22.306 88.9583 22.7344 88.5391 23.1172C88.1198 23.5 87.6549 23.8372 87.1445 24.1289C86.6523 24.4206 86.1784 24.6667 85.7227 24.8672C85.5951 24.9036 85.3125 25.0039 84.875 25.168C84.4557 25.332 84 25.5052 83.5078 25.6875C83.0156 25.8698 82.5326 26.0521 82.0586 26.2344C81.6029 26.3984 81.2656 26.526 81.0469 26.6172C80.7552 26.7083 80.5091 26.7812 80.3086 26.8359C80.1081 26.8724 79.9258 26.9089 79.7617 26.9453C79.5977 26.9818 79.4245 27 79.2422 27C79.0781 27.0182 78.8776 27.0273 78.6406 27.0273C77.9844 27.0273 77.4375 26.9453 77 26.7812C76.5807 26.6172 76.2435 26.3802 75.9883 26.0703C75.7331 25.7422 75.5417 25.3503 75.4141 24.8945C75.3047 24.4206 75.2318 23.8737 75.1953 23.2539ZM89.3594 24.8672C89.3594 24.849 89.3685 24.7852 89.3867 24.6758C89.4049 24.5664 89.4232 24.457 89.4414 24.3477C89.4596 24.2201 89.4779 24.1107 89.4961 24.0195C89.5143 23.9102 89.5234 23.8372 89.5234 23.8008V23.6914V23.5273L89.9062 21.8047C90.2161 21.1484 90.5352 20.5195 90.8633 19.918C91.2096 19.3164 91.6016 18.7878 92.0391 18.332C92.4766 17.8763 92.9779 17.5117 93.543 17.2383C94.1263 16.9648 94.8281 16.8281 95.6484 16.8281C95.8125 16.8281 96.013 16.8828 96.25 16.9922C96.5052 17.0833 96.7513 17.2018 96.9883 17.3477C97.2435 17.4935 97.4714 17.6484 97.6719 17.8125C97.8906 17.9583 98.0547 18.0951 98.1641 18.2227C98.7292 18.1315 99.1393 18.0859 99.3945 18.0859C99.6497 18.0677 99.8685 18.0586 100.051 18.0586C100.233 18.0404 100.424 18.0039 100.625 17.9492C100.844 17.8945 101.172 17.776 101.609 17.5938C101.919 17.5026 102.22 17.457 102.512 17.457C102.639 17.457 102.758 17.5117 102.867 17.6211C102.995 17.7305 103.059 17.8581 103.059 18.0039C103.059 18.1862 102.995 18.3503 102.867 18.4961C102.74 18.6419 102.585 18.7331 102.402 18.7695L98.9844 19.5352L98.6836 19.6719C98.6654 20.6562 98.4466 21.5951 98.0273 22.4883C97.6081 23.3815 97.0521 24.1654 96.3594 24.8398C95.6667 25.5143 94.8646 26.0521 93.9531 26.4531C93.0417 26.8359 92.0938 27.0273 91.1094 27.0273C91.0365 27.0273 90.918 27.0182 90.7539 27C90.5898 27 90.4805 27 90.4258 27C90.0247 26.8359 89.7422 26.5352 89.5781 26.0977C89.4323 25.6602 89.3594 25.25 89.3594 24.8672ZM91.1094 25.4141C91.1276 25.5052 91.2005 25.5508 91.3281 25.5508C91.4557 25.5508 91.5469 25.5508 91.6016 25.5508C92.2578 25.5508 92.9323 25.3867 93.625 25.0586C94.3177 24.7122 94.9375 24.2747 95.4844 23.7461C96.0495 23.1992 96.5052 22.5885 96.8516 21.9141C97.2161 21.2214 97.3984 20.5286 97.3984 19.8359C96.8151 19.8359 96.2318 19.7904 95.6484 19.6992C95.0651 19.5898 94.5 19.5352 93.9531 19.5352H93.9258L91.6562 21.9414C91.5286 22.069 91.4284 22.2422 91.3555 22.4609C91.2826 22.6797 91.2279 22.9167 91.1914 23.1719C91.1549 23.4271 91.1276 23.6823 91.1094 23.9375C91.0911 24.1927 91.082 24.4206 91.082 24.6211C91.082 24.6758 91.082 24.8034 91.082 25.0039C91.082 25.2044 91.0911 25.3411 91.1094 25.4141ZM101.801 35.8047C101.801 35.75 101.801 35.6589 101.801 35.5312C101.801 35.4219 101.801 35.3034 101.801 35.1758C101.801 35.0664 101.801 34.9661 101.801 34.875C101.801 34.8021 101.801 34.7565 101.801 34.7383L102.758 26.1797C102.885 25.5052 102.995 24.9766 103.086 24.5938C103.177 24.1927 103.25 23.8919 103.305 23.6914C103.378 23.4727 103.451 23.3268 103.523 23.2539L105.52 16.8555C105.592 16.6367 105.729 16.3268 105.93 15.9258C106.13 15.5065 106.358 15.0964 106.613 14.6953C106.887 14.2943 107.178 13.957 107.488 13.6836C107.798 13.3919 108.108 13.2461 108.418 13.2461C108.546 13.2461 108.655 13.2917 108.746 13.3828C108.837 13.474 108.91 13.5833 108.965 13.7109C109.038 13.8385 109.083 13.9753 109.102 14.1211C109.138 14.2669 109.156 14.3854 109.156 14.4766C109.156 15.3151 109.038 16.1719 108.801 17.0469C108.582 17.9219 108.29 18.7878 107.926 19.6445C107.561 20.4831 107.124 21.2852 106.613 22.0508C106.103 22.8164 105.565 23.4909 105 24.0742L104.59 25.5508C106.65 25.5143 108.646 25.1771 110.578 24.5391C112.529 23.901 114.397 23.1172 116.184 22.1875H116.32C116.484 22.1875 116.594 22.2513 116.648 22.3789C116.721 22.4883 116.758 22.6068 116.758 22.7344C116.758 22.8802 116.73 23.0078 116.676 23.1172C116.621 23.2266 116.503 23.3268 116.32 23.418C114.88 24.3112 113.34 25.0404 111.699 25.6055C110.059 26.1706 108.4 26.599 106.723 26.8906C107.051 27.2552 107.324 27.556 107.543 27.793C107.762 28.0299 107.935 28.2669 108.062 28.5039C108.208 28.7591 108.309 29.0508 108.363 29.3789C108.436 29.707 108.473 30.1536 108.473 30.7188C108.473 32.1406 108.135 33.3802 107.461 34.4375C106.805 35.513 105.939 36.5065 104.863 37.418C104.608 37.6185 104.289 37.8281 103.906 38.0469C103.542 38.2656 103.186 38.375 102.84 38.375C102.53 38.375 102.302 38.2747 102.156 38.0742C102.01 37.8737 101.91 37.6367 101.855 37.3633C101.801 37.1081 101.783 36.8346 101.801 36.543C101.801 36.2513 101.801 36.0052 101.801 35.8047ZM104.043 28.0664C103.97 28.6315 103.888 29.2695 103.797 29.9805C103.706 30.6914 103.624 31.4206 103.551 32.168C103.478 32.9154 103.414 33.6628 103.359 34.4102C103.305 35.1576 103.277 35.8594 103.277 36.5156C103.77 36.5156 104.243 36.2969 104.699 35.8594C105.173 35.4401 105.592 34.9206 105.957 34.3008C106.322 33.6992 106.622 33.0794 106.859 32.4414C107.096 31.8034 107.224 31.2747 107.242 30.8555C107.279 30.3451 107.242 29.9076 107.133 29.543C107.042 29.1966 106.887 28.8958 106.668 28.6406C106.449 28.4036 106.167 28.2031 105.82 28.0391C105.474 27.875 105.064 27.7109 104.59 27.5469H104.453C104.326 27.5469 104.234 27.6016 104.18 27.7109C104.125 27.8203 104.079 27.9388 104.043 28.0664ZM107.406 16.3359C107.388 16.3359 107.352 16.4089 107.297 16.5547C107.242 16.6823 107.169 16.8281 107.078 16.9922C107.005 17.1562 106.932 17.3294 106.859 17.5117C106.805 17.694 106.759 17.8307 106.723 17.9219C106.668 18.0677 106.604 18.2591 106.531 18.4961C106.458 18.7148 106.385 18.9427 106.312 19.1797C106.258 19.3984 106.203 19.599 106.148 19.7812C106.094 19.9453 106.066 20.0365 106.066 20.0547V20.2188C106.413 19.599 106.732 18.9518 107.023 18.2773C107.315 17.5846 107.479 16.8919 107.516 16.1992L107.406 16.3359ZM115.445 35.8047C115.445 35.75 115.445 35.6589 115.445 35.5312C115.445 35.4219 115.445 35.3034 115.445 35.1758C115.445 35.0664 115.445 34.9661 115.445 34.875C115.445 34.8021 115.445 34.7565 115.445 34.7383L116.402 26.1797C116.53 25.5052 116.639 24.9766 116.73 24.5938C116.822 24.1927 116.895 23.8919 116.949 23.6914C117.022 23.4727 117.095 23.3268 117.168 23.2539L119.164 16.8555C119.237 16.6367 119.374 16.3268 119.574 15.9258C119.775 15.5065 120.003 15.0964 120.258 14.6953C120.531 14.2943 120.823 13.957 121.133 13.6836C121.443 13.3919 121.753 13.2461 122.062 13.2461C122.19 13.2461 122.299 13.2917 122.391 13.3828C122.482 13.474 122.555 13.5833 122.609 13.7109C122.682 13.8385 122.728 13.9753 122.746 14.1211C122.783 14.2669 122.801 14.3854 122.801 14.4766C122.801 15.3151 122.682 16.1719 122.445 17.0469C122.227 17.9219 121.935 18.7878 121.57 19.6445C121.206 20.4831 120.768 21.2852 120.258 22.0508C119.747 22.8164 119.21 23.4909 118.645 24.0742L118.234 25.5508C120.294 25.5143 122.29 25.1771 124.223 24.5391C126.173 23.901 128.042 23.1172 129.828 22.1875H129.965C130.129 22.1875 130.238 22.2513 130.293 22.3789C130.366 22.4883 130.402 22.6068 130.402 22.7344C130.402 22.8802 130.375 23.0078 130.32 23.1172C130.266 23.2266 130.147 23.3268 129.965 23.418C128.525 24.3112 126.984 25.0404 125.344 25.6055C123.703 26.1706 122.044 26.599 120.367 26.8906C120.695 27.2552 120.969 27.556 121.188 27.793C121.406 28.0299 121.579 28.2669 121.707 28.5039C121.853 28.7591 121.953 29.0508 122.008 29.3789C122.081 29.707 122.117 30.1536 122.117 30.7188C122.117 32.1406 121.78 33.3802 121.105 34.4375C120.449 35.513 119.583 36.5065 118.508 37.418C118.253 37.6185 117.934 37.8281 117.551 38.0469C117.186 38.2656 116.831 38.375 116.484 38.375C116.174 38.375 115.947 38.2747 115.801 38.0742C115.655 37.8737 115.555 37.6367 115.5 37.3633C115.445 37.1081 115.427 36.8346 115.445 36.543C115.445 36.2513 115.445 36.0052 115.445 35.8047ZM117.688 28.0664C117.615 28.6315 117.533 29.2695 117.441 29.9805C117.35 30.6914 117.268 31.4206 117.195 32.168C117.122 32.9154 117.059 33.6628 117.004 34.4102C116.949 35.1576 116.922 35.8594 116.922 36.5156C117.414 36.5156 117.888 36.2969 118.344 35.8594C118.818 35.4401 119.237 34.9206 119.602 34.3008C119.966 33.6992 120.267 33.0794 120.504 32.4414C120.741 31.8034 120.868 31.2747 120.887 30.8555C120.923 30.3451 120.887 29.9076 120.777 29.543C120.686 29.1966 120.531 28.8958 120.312 28.6406C120.094 28.4036 119.811 28.2031 119.465 28.0391C119.118 27.875 118.708 27.7109 118.234 27.5469H118.098C117.97 27.5469 117.879 27.6016 117.824 27.7109C117.77 27.8203 117.724 27.9388 117.688 28.0664ZM121.051 16.3359C121.033 16.3359 120.996 16.4089 120.941 16.5547C120.887 16.6823 120.814 16.8281 120.723 16.9922C120.65 17.1562 120.577 17.3294 120.504 17.5117C120.449 17.694 120.404 17.8307 120.367 17.9219C120.312 18.0677 120.249 18.2591 120.176 18.4961C120.103 18.7148 120.03 18.9427 119.957 19.1797C119.902 19.3984 119.848 19.599 119.793 19.7812C119.738 19.9453 119.711 20.0365 119.711 20.0547V20.2188C120.057 19.599 120.376 18.9518 120.668 18.2773C120.96 17.5846 121.124 16.8919 121.16 16.1992L121.051 16.3359ZM129.883 22.7344C129.919 22.625 129.974 22.4336 130.047 22.1602C130.138 21.8685 130.22 21.5586 130.293 21.2305C130.384 20.9023 130.457 20.5924 130.512 20.3008C130.585 19.9909 130.639 19.7812 130.676 19.6719C130.785 19.2344 130.913 18.7604 131.059 18.25C131.223 17.7396 131.441 17.2656 131.715 16.8281C131.988 16.3906 132.335 16.0352 132.754 15.7617C133.191 15.4701 133.729 15.3242 134.367 15.3242C134.604 15.3242 134.768 15.4154 134.859 15.5977C134.969 15.7617 135.06 15.944 135.133 16.1445C135.133 16.2174 135.133 16.3542 135.133 16.5547C135.151 16.737 135.16 16.8646 135.16 16.9375C135.16 17.7214 135.078 18.4141 134.914 19.0156C134.768 19.6172 134.531 20.1732 134.203 20.6836C133.893 21.194 133.51 21.6771 133.055 22.1328C132.599 22.5703 132.079 23.0352 131.496 23.5273C131.478 23.582 131.451 23.6732 131.414 23.8008C131.378 23.9284 131.359 24.0195 131.359 24.0742V24.1289C131.359 24.457 131.414 24.7214 131.523 24.9219C131.633 25.1224 131.779 25.2865 131.961 25.4141C132.161 25.5234 132.38 25.5964 132.617 25.6328C132.872 25.651 133.146 25.6602 133.438 25.6602C134.294 25.6602 135.115 25.5417 135.898 25.3047C136.682 25.0677 137.402 24.6849 138.059 24.1562C138.15 24.0651 138.259 23.9375 138.387 23.7734C138.533 23.5911 138.678 23.4089 138.824 23.2266C138.97 23.0443 139.125 22.8893 139.289 22.7617C139.453 22.6159 139.626 22.543 139.809 22.543C139.991 22.543 140.1 22.6159 140.137 22.7617C140.173 22.9076 140.191 23.0534 140.191 23.1992C140.191 23.6003 140.064 23.9831 139.809 24.3477C139.572 24.694 139.253 25.013 138.852 25.3047C138.469 25.5781 138.022 25.8242 137.512 26.043C137.02 26.2617 136.527 26.444 136.035 26.5898C135.543 26.7357 135.069 26.8451 134.613 26.918C134.176 26.9909 133.802 27.0273 133.492 27.0273C132.526 27.0273 131.715 26.8724 131.059 26.5625C130.421 26.2344 129.983 25.5872 129.746 24.6211L129.883 22.7344ZM133.793 17.3477C133.428 17.6758 133.137 17.9766 132.918 18.25C132.717 18.5052 132.553 18.7786 132.426 19.0703C132.316 19.3438 132.216 19.6445 132.125 19.9727C132.052 20.3008 131.97 20.6836 131.879 21.1211C132.225 20.8477 132.508 20.5742 132.727 20.3008C132.964 20.0273 133.155 19.7448 133.301 19.4531C133.447 19.1615 133.556 18.8516 133.629 18.5234C133.702 18.1771 133.757 17.7852 133.793 17.3477ZM140 22.7344C140.036 22.625 140.091 22.4336 140.164 22.1602C140.255 21.8685 140.337 21.5586 140.41 21.2305C140.501 20.9023 140.574 20.5924 140.629 20.3008C140.702 19.9909 140.757 19.7812 140.793 19.6719C140.902 19.2344 141.03 18.7604 141.176 18.25C141.34 17.7396 141.559 17.2656 141.832 16.8281C142.105 16.3906 142.452 16.0352 142.871 15.7617C143.309 15.4701 143.846 15.3242 144.484 15.3242C144.721 15.3242 144.885 15.4154 144.977 15.5977C145.086 15.7617 145.177 15.944 145.25 16.1445C145.25 16.2174 145.25 16.3542 145.25 16.5547C145.268 16.737 145.277 16.8646 145.277 16.9375C145.277 17.7214 145.195 18.4141 145.031 19.0156C144.885 19.6172 144.648 20.1732 144.32 20.6836C144.01 21.194 143.628 21.6771 143.172 22.1328C142.716 22.5703 142.197 23.0352 141.613 23.5273C141.595 23.582 141.568 23.6732 141.531 23.8008C141.495 23.9284 141.477 24.0195 141.477 24.0742V24.1289C141.477 24.457 141.531 24.7214 141.641 24.9219C141.75 25.1224 141.896 25.2865 142.078 25.4141C142.279 25.5234 142.497 25.5964 142.734 25.6328C142.99 25.651 143.263 25.6602 143.555 25.6602C144.411 25.6602 145.232 25.5417 146.016 25.3047C146.799 25.0677 147.52 24.6849 148.176 24.1562C148.267 24.0651 148.376 23.9375 148.504 23.7734C148.65 23.5911 148.796 23.4089 148.941 23.2266C149.087 23.0443 149.242 22.8893 149.406 22.7617C149.57 22.6159 149.743 22.543 149.926 22.543C150.108 22.543 150.217 22.6159 150.254 22.7617C150.29 22.9076 150.309 23.0534 150.309 23.1992C150.309 23.6003 150.181 23.9831 149.926 24.3477C149.689 24.694 149.37 25.013 148.969 25.3047C148.586 25.5781 148.139 25.8242 147.629 26.043C147.137 26.2617 146.645 26.444 146.152 26.5898C145.66 26.7357 145.186 26.8451 144.73 26.918C144.293 26.9909 143.919 27.0273 143.609 27.0273C142.643 27.0273 141.832 26.8724 141.176 26.5625C140.538 26.2344 140.1 25.5872 139.863 24.6211L140 22.7344ZM143.91 17.3477C143.546 17.6758 143.254 17.9766 143.035 18.25C142.835 18.5052 142.671 18.7786 142.543 19.0703C142.434 19.3438 142.333 19.6445 142.242 19.9727C142.169 20.3008 142.087 20.6836 141.996 21.1211C142.342 20.8477 142.625 20.5742 142.844 20.3008C143.081 20.0273 143.272 19.7448 143.418 19.4531C143.564 19.1615 143.673 18.8516 143.746 18.5234C143.819 18.1771 143.874 17.7852 143.91 17.3477ZM155.121 32.0039C155.595 31.056 156.014 30.0807 156.379 29.0781C156.762 28.0755 156.953 27.0273 156.953 25.9336C156.953 25.7513 156.926 25.5326 156.871 25.2773C156.835 25.0221 156.762 24.776 156.652 24.5391C156.543 24.2839 156.397 24.0651 156.215 23.8828C156.051 23.7005 155.841 23.6094 155.586 23.6094C155.24 23.6094 154.957 23.7734 154.738 24.1016C154.52 24.4297 154.319 24.7943 154.137 25.1953C153.954 25.5964 153.781 25.9609 153.617 26.2891C153.453 26.6172 153.271 26.7812 153.07 26.7812H151.02C151.001 26.7812 150.956 26.7448 150.883 26.6719C150.81 26.5807 150.728 26.4896 150.637 26.3984C150.564 26.2891 150.5 26.1888 150.445 26.0977C150.391 25.9883 150.363 25.9154 150.363 25.8789C150.454 25.4049 150.682 24.9674 151.047 24.5664C151.411 24.1471 151.84 23.7826 152.332 23.4727C152.824 23.1445 153.344 22.8984 153.891 22.7344C154.438 22.5521 154.921 22.4609 155.34 22.4609C155.796 22.4609 156.206 22.543 156.57 22.707C156.953 22.8711 157.272 23.099 157.527 23.3906C157.783 23.6823 157.974 24.0286 158.102 24.4297C158.247 24.8125 158.32 25.2318 158.32 25.6875C158.32 26.3802 158.211 27.0729 157.992 27.7656C157.773 28.4583 157.5 29.1146 157.172 29.7344C157.062 29.9349 156.917 30.181 156.734 30.4727C156.57 30.7826 156.397 31.0833 156.215 31.375C156.051 31.6667 155.905 31.9128 155.777 32.1133C155.668 32.332 155.604 32.4414 155.586 32.4414H155.121V32.0039ZM172.02 22.7344C172.056 22.625 172.111 22.4336 172.184 22.1602C172.275 21.8685 172.357 21.5586 172.43 21.2305C172.521 20.9023 172.594 20.5924 172.648 20.3008C172.721 19.9909 172.776 19.7812 172.812 19.6719C172.922 19.2344 173.049 18.7604 173.195 18.25C173.359 17.7396 173.578 17.2656 173.852 16.8281C174.125 16.3906 174.471 16.0352 174.891 15.7617C175.328 15.4701 175.866 15.3242 176.504 15.3242C176.741 15.3242 176.905 15.4154 176.996 15.5977C177.105 15.7617 177.197 15.944 177.27 16.1445C177.27 16.2174 177.27 16.3542 177.27 16.5547C177.288 16.737 177.297 16.8646 177.297 16.9375C177.297 17.7214 177.215 18.4141 177.051 19.0156C176.905 19.6172 176.668 20.1732 176.34 20.6836C176.03 21.194 175.647 21.6771 175.191 22.1328C174.736 22.5703 174.216 23.0352 173.633 23.5273C173.615 23.582 173.587 23.6732 173.551 23.8008C173.514 23.9284 173.496 24.0195 173.496 24.0742V24.1289C173.496 24.457 173.551 24.7214 173.66 24.9219C173.77 25.1224 173.915 25.2865 174.098 25.4141C174.298 25.5234 174.517 25.5964 174.754 25.6328C175.009 25.651 175.283 25.6602 175.574 25.6602C176.431 25.6602 177.251 25.5417 178.035 25.3047C178.819 25.0677 179.539 24.6849 180.195 24.1562C180.286 24.0651 180.396 23.9375 180.523 23.7734C180.669 23.5911 180.815 23.4089 180.961 23.2266C181.107 23.0443 181.262 22.8893 181.426 22.7617C181.59 22.6159 181.763 22.543 181.945 22.543C182.128 22.543 182.237 22.6159 182.273 22.7617C182.31 22.9076 182.328 23.0534 182.328 23.1992C182.328 23.6003 182.201 23.9831 181.945 24.3477C181.708 24.694 181.389 25.013 180.988 25.3047C180.605 25.5781 180.159 25.8242 179.648 26.043C179.156 26.2617 178.664 26.444 178.172 26.5898C177.68 26.7357 177.206 26.8451 176.75 26.918C176.312 26.9909 175.939 27.0273 175.629 27.0273C174.663 27.0273 173.852 26.8724 173.195 26.5625C172.557 26.2344 172.12 25.5872 171.883 24.6211L172.02 22.7344ZM175.93 17.3477C175.565 17.6758 175.273 17.9766 175.055 18.25C174.854 18.5052 174.69 18.7786 174.562 19.0703C174.453 19.3438 174.353 19.6445 174.262 19.9727C174.189 20.3008 174.107 20.6836 174.016 21.1211C174.362 20.8477 174.645 20.5742 174.863 20.3008C175.1 20.0273 175.292 19.7448 175.438 19.4531C175.583 19.1615 175.693 18.8516 175.766 18.5234C175.839 18.1771 175.893 17.7852 175.93 17.3477ZM181.945 26.4531L182.875 20.9844V20.2188L183.422 16.582C183.477 16.5091 183.577 16.4727 183.723 16.4727C183.868 16.4544 183.969 16.4453 184.023 16.4453C184.169 16.4453 184.333 16.5 184.516 16.6094C184.716 16.7005 184.816 16.8281 184.816 16.9922V18.8516C184.889 18.7969 185.017 18.6875 185.199 18.5234C185.382 18.3594 185.573 18.1862 185.773 18.0039C185.992 17.8216 186.193 17.6484 186.375 17.4844C186.557 17.3203 186.676 17.2018 186.73 17.1289C186.931 16.9466 187.168 16.7917 187.441 16.6641C187.733 16.5365 188.007 16.4727 188.262 16.4727C188.79 16.4727 189.201 16.6367 189.492 16.9648C189.802 17.293 189.957 17.7122 189.957 18.2227C189.957 18.2591 189.948 18.2865 189.93 18.3047C189.93 18.3047 189.93 18.3229 189.93 18.3594V18.4688L188.891 23.1445V25.3594C189.456 25.3594 190.039 25.25 190.641 25.0312C191.26 24.7943 191.853 24.5026 192.418 24.1562C192.983 23.8099 193.512 23.418 194.004 22.9805C194.496 22.5247 194.924 22.0872 195.289 21.668H195.398C195.526 21.668 195.626 21.7135 195.699 21.8047C195.79 21.8776 195.836 21.9779 195.836 22.1055C195.836 22.5065 195.699 22.9076 195.426 23.3086C195.171 23.6914 194.833 24.056 194.414 24.4023C194.013 24.7487 193.539 25.0768 192.992 25.3867C192.464 25.6966 191.935 25.9609 191.406 26.1797C190.896 26.3984 190.395 26.5716 189.902 26.6992C189.41 26.8268 188.991 26.8906 188.645 26.8906C188.298 26.8906 188.025 26.8268 187.824 26.6992C187.624 26.5716 187.469 26.4076 187.359 26.207C187.268 25.9883 187.204 25.7513 187.168 25.4961C187.15 25.2409 187.141 24.9674 187.141 24.6758V24.3203L188.207 19.0156V18.1133C187.77 18.1133 187.332 18.3047 186.895 18.6875C186.475 19.0703 186.092 19.5352 185.746 20.082C185.418 20.6289 185.126 21.1849 184.871 21.75C184.634 22.3151 184.461 22.7799 184.352 23.1445C184.315 23.2721 184.26 23.5 184.188 23.8281C184.115 24.1562 184.042 24.5026 183.969 24.8672C183.914 25.2318 183.859 25.5781 183.805 25.9062C183.75 26.2344 183.714 26.4714 183.695 26.6172C183.714 26.7266 183.677 26.8086 183.586 26.8633C183.513 26.918 183.422 26.9635 183.312 27C183.203 27.0182 183.085 27.0273 182.957 27.0273C182.848 27.0273 182.757 27.0273 182.684 27.0273C182.52 27.0273 182.355 27 182.191 26.9453C182.027 26.8906 181.945 26.7539 181.945 26.5352V26.4531ZM187.852 37.1719C187.852 36.0781 188.061 34.9935 188.48 33.918C188.9 32.8607 189.447 31.849 190.121 30.8828C190.777 29.9167 191.525 29.0234 192.363 28.2031C193.184 27.3828 193.995 26.6719 194.797 26.0703C194.87 25.7969 194.934 25.5326 194.988 25.2773C195.061 25.0039 195.134 24.7214 195.207 24.4297V24.3203C195.098 23.9557 195.034 23.5091 195.016 22.9805C195.016 22.4336 195.043 21.9049 195.098 21.3945C195.171 20.8659 195.262 20.4193 195.371 20.0547C195.48 19.6901 195.599 19.5078 195.727 19.5078C195.964 19.5078 196.146 19.5807 196.273 19.7266C196.419 19.8724 196.492 20.0729 196.492 20.3281C196.492 20.9479 196.556 21.6133 196.684 22.3242C196.829 23.0169 196.902 23.6641 196.902 24.2656V24.6211C197.796 24.1471 198.689 23.7552 199.582 23.4453C200.475 23.1354 201.441 22.9805 202.48 22.9805C202.572 22.9805 202.681 22.9896 202.809 23.0078C202.954 23.0078 203.082 23.026 203.191 23.0625C203.301 23.099 203.392 23.1628 203.465 23.2539C203.556 23.3451 203.602 23.4635 203.602 23.6094C203.602 23.8281 203.501 23.974 203.301 24.0469C203.118 24.1198 202.945 24.1654 202.781 24.1836C202.581 24.2201 202.28 24.2839 201.879 24.375C201.478 24.4661 201.031 24.5846 200.539 24.7305C200.065 24.8581 199.582 25.013 199.09 25.1953C198.598 25.3594 198.142 25.5599 197.723 25.7969C197.303 26.0339 196.948 26.2799 196.656 26.5352C196.365 26.7904 196.191 27.0729 196.137 27.3828C196.046 27.9297 196 28.5039 196 29.1055C196.018 29.7253 196 30.3268 195.945 30.9102C195.909 31.5117 195.809 32.0951 195.645 32.6602C195.499 33.2435 195.216 33.763 194.797 34.2188L191.324 37.9375C191.215 38.0651 191.069 38.2109 190.887 38.375C190.686 38.5391 190.477 38.6849 190.258 38.8125C190.039 38.9401 189.811 39.0495 189.574 39.1406C189.319 39.2318 189.082 39.2773 188.863 39.2773C188.626 39.2773 188.435 39.1862 188.289 39.0039C188.143 38.8398 188.043 38.6393 187.988 38.4023C187.934 38.1836 187.897 37.9557 187.879 37.7188C187.861 37.4818 187.852 37.2995 187.852 37.1719ZM189.191 37.1445C189.21 37.1992 189.237 37.2721 189.273 37.3633C189.292 37.4544 189.31 37.5091 189.328 37.5273C189.328 37.5273 189.346 37.5365 189.383 37.5547C189.474 37.5547 189.592 37.5 189.738 37.3906C189.884 37.2995 190.03 37.1992 190.176 37.0898C190.303 36.9805 190.422 36.8711 190.531 36.7617C190.641 36.6523 190.695 36.5977 190.695 36.5977C191.26 36.0508 191.78 35.5312 192.254 35.0391C192.71 34.5651 193.102 34.0729 193.43 33.5625C193.74 33.0521 193.986 32.487 194.168 31.8672C194.332 31.2474 194.414 30.5182 194.414 29.6797V28.3398C193.831 28.6862 193.238 29.2057 192.637 29.8984C192.017 30.6094 191.452 31.3841 190.941 32.2227C190.431 33.0612 190.012 33.9089 189.684 34.7656C189.355 35.6224 189.191 36.3971 189.191 37.0898V37.1445ZM195.699 17.2109C195.699 16.974 195.79 16.7643 195.973 16.582C196.155 16.3997 196.365 16.3086 196.602 16.3086C196.784 16.3086 196.957 16.3633 197.121 16.4727C197.285 16.582 197.367 16.7279 197.367 16.9102C197.367 17.1471 197.258 17.375 197.039 17.5938C196.839 17.8125 196.62 17.9219 196.383 17.9219C196.164 17.9219 195.991 17.849 195.863 17.7031C195.754 17.5573 195.699 17.3932 195.699 17.2109ZM202.316 24.8672C202.316 24.849 202.326 24.7852 202.344 24.6758C202.362 24.5664 202.38 24.457 202.398 24.3477C202.417 24.2201 202.435 24.1107 202.453 24.0195C202.471 23.9102 202.48 23.8372 202.48 23.8008V23.6914V23.5273L202.863 21.8047C203.173 21.1484 203.492 20.5195 203.82 19.918C204.167 19.3164 204.559 18.7878 204.996 18.332C205.434 17.8763 205.935 17.5117 206.5 17.2383C207.083 16.9648 207.785 16.8281 208.605 16.8281C208.77 16.8281 208.97 16.8828 209.207 16.9922C209.462 17.0833 209.708 17.2018 209.945 17.3477C210.201 17.4935 210.428 17.6484 210.629 17.8125C210.848 17.9583 211.012 18.0951 211.121 18.2227C211.686 18.1315 212.096 18.0859 212.352 18.0859C212.607 18.0677 212.826 18.0586 213.008 18.0586C213.19 18.0404 213.382 18.0039 213.582 17.9492C213.801 17.8945 214.129 17.776 214.566 17.5938C214.876 17.5026 215.177 17.457 215.469 17.457C215.596 17.457 215.715 17.5117 215.824 17.6211C215.952 17.7305 216.016 17.8581 216.016 18.0039C216.016 18.1862 215.952 18.3503 215.824 18.4961C215.697 18.6419 215.542 18.7331 215.359 18.7695L211.941 19.5352L211.641 19.6719C211.622 20.6562 211.404 21.5951 210.984 22.4883C210.565 23.3815 210.009 24.1654 209.316 24.8398C208.624 25.5143 207.822 26.0521 206.91 26.4531C205.999 26.8359 205.051 27.0273 204.066 27.0273C203.993 27.0273 203.875 27.0182 203.711 27C203.547 27 203.438 27 203.383 27C202.982 26.8359 202.699 26.5352 202.535 26.0977C202.389 25.6602 202.316 25.25 202.316 24.8672ZM204.066 25.4141C204.085 25.5052 204.158 25.5508 204.285 25.5508C204.413 25.5508 204.504 25.5508 204.559 25.5508C205.215 25.5508 205.889 25.3867 206.582 25.0586C207.275 24.7122 207.895 24.2747 208.441 23.7461C209.007 23.1992 209.462 22.5885 209.809 21.9141C210.173 21.2214 210.355 20.5286 210.355 19.8359C209.772 19.8359 209.189 19.7904 208.605 19.6992C208.022 19.5898 207.457 19.5352 206.91 19.5352H206.883L204.613 21.9414C204.486 22.069 204.385 22.2422 204.312 22.4609C204.24 22.6797 204.185 22.9167 204.148 23.1719C204.112 23.4271 204.085 23.6823 204.066 23.9375C204.048 24.1927 204.039 24.4206 204.039 24.6211C204.039 24.6758 204.039 24.8034 204.039 25.0039C204.039 25.2044 204.048 25.3411 204.066 25.4141ZM214.211 33.8906C214.211 32.7057 214.475 31.612 215.004 30.6094C215.514 29.625 216.171 28.7227 216.973 27.9023C217.793 27.1003 218.695 26.3802 219.68 25.7422C220.682 25.1042 221.658 24.5482 222.605 24.0742L223.398 21.5312C223.307 21.6406 223.125 21.8229 222.852 22.0781C222.596 22.3333 222.323 22.6068 222.031 22.8984C221.74 23.1719 221.457 23.4362 221.184 23.6914C220.91 23.9284 220.719 24.0924 220.609 24.1836C220.391 24.3659 220.126 24.5755 219.816 24.8125C219.507 25.0495 219.169 25.2773 218.805 25.4961C218.458 25.6966 218.103 25.8698 217.738 26.0156C217.374 26.1432 217.046 26.207 216.754 26.207C216.353 26.207 216.089 26.1159 215.961 25.9336C215.852 25.7331 215.797 25.4505 215.797 25.0859C215.797 24.7943 215.815 24.4935 215.852 24.1836C215.906 23.8737 215.897 23.5638 215.824 23.2539L216.891 20.3555C217.055 20.1914 217.21 19.9362 217.355 19.5898C217.52 19.2435 217.674 18.8971 217.82 18.5508C217.984 18.2044 218.148 17.9036 218.312 17.6484C218.495 17.3932 218.686 17.2656 218.887 17.2656C219.105 17.2656 219.288 17.3294 219.434 17.457C219.598 17.5846 219.68 17.7669 219.68 18.0039C219.68 18.1862 219.652 18.3503 219.598 18.4961C219.561 18.6237 219.497 18.7969 219.406 19.0156C219.169 19.5078 218.932 19.9727 218.695 20.4102C218.477 20.8477 218.267 21.2852 218.066 21.7227C217.884 22.1602 217.729 22.6159 217.602 23.0898C217.492 23.5456 217.438 24.056 217.438 24.6211H217.547C217.547 24.6211 217.602 24.5938 217.711 24.5391C217.82 24.4661 217.939 24.3932 218.066 24.3203C218.212 24.2292 218.358 24.138 218.504 24.0469C218.65 23.9557 218.777 23.8737 218.887 23.8008C219.889 23.1445 220.773 22.3789 221.539 21.5039C222.305 20.6107 223.061 19.6901 223.809 18.7422C223.882 18.6328 223.945 18.5508 224 18.4961C224.055 18.4414 224.1 18.4049 224.137 18.3867C224.173 18.3503 224.219 18.332 224.273 18.332C224.328 18.332 224.41 18.332 224.52 18.332C224.775 18.332 224.975 18.3867 225.121 18.4961C225.285 18.5872 225.385 18.806 225.422 19.1523C225.44 19.3893 225.422 19.681 225.367 20.0273C225.312 20.3555 225.24 20.6836 225.148 21.0117C225.057 21.3398 224.957 21.668 224.848 21.9961C224.757 22.306 224.674 22.5521 224.602 22.7344V23.1445C224.638 23.1263 224.72 23.099 224.848 23.0625C224.993 23.026 225.094 22.9987 225.148 22.9805C225.258 22.9622 225.559 22.862 226.051 22.6797C226.543 22.4974 227.072 22.306 227.637 22.1055C228.22 21.8867 228.758 21.6862 229.25 21.5039C229.742 21.3216 230.052 21.2031 230.18 21.1484H230.234C230.362 21.1484 230.471 21.194 230.562 21.2852C230.672 21.3763 230.727 21.4857 230.727 21.6133C230.727 21.7409 230.681 21.8503 230.59 21.9414C230.517 22.0326 230.426 22.1146 230.316 22.1875C230.207 22.2422 230.089 22.2969 229.961 22.3516C229.833 22.4062 229.724 22.4518 229.633 22.4883C229.505 22.5612 229.323 22.6523 229.086 22.7617C228.849 22.8529 228.576 22.9622 228.266 23.0898C227.974 23.1992 227.664 23.3268 227.336 23.4727C227.008 23.6185 226.689 23.7552 226.379 23.8828C225.632 24.1927 224.82 24.5208 223.945 24.8672L221.539 33.9453C221.43 34.3828 221.22 34.8385 220.91 35.3125C220.618 35.7865 220.272 36.224 219.871 36.625C219.47 37.026 219.023 37.3451 218.531 37.582C218.057 37.8372 217.574 37.9648 217.082 37.9648C216.572 37.9648 216.134 37.8281 215.77 37.5547C215.405 37.2995 215.104 36.9622 214.867 36.543C214.63 36.1419 214.466 35.7044 214.375 35.2305C214.266 34.7565 214.211 34.3099 214.211 33.8906ZM215.688 33.8906C215.688 34.1276 215.706 34.3919 215.742 34.6836C215.797 34.9753 215.888 35.2578 216.016 35.5312C216.143 35.8047 216.298 36.0326 216.48 36.2148C216.681 36.3971 216.936 36.4883 217.246 36.4883C217.647 36.4883 218.012 36.3607 218.34 36.1055C218.686 35.8685 218.987 35.5677 219.242 35.2031C219.516 34.8568 219.743 34.4831 219.926 34.082C220.108 33.681 220.254 33.3255 220.363 33.0156C220.418 32.7969 220.5 32.487 220.609 32.0859C220.719 31.7031 220.819 31.3203 220.91 30.9375C221.02 30.5547 221.111 30.2083 221.184 29.8984C221.257 29.6068 221.293 29.4336 221.293 29.3789V29.2695L222.086 25.8242C221.357 26.0612 220.609 26.4622 219.844 27.0273C219.096 27.5924 218.413 28.2487 217.793 28.9961C217.173 29.7435 216.663 30.5456 216.262 31.4023C215.879 32.2591 215.688 33.0885 215.688 33.8906ZM242.129 25.4414C242.129 24.8034 242.202 24.1836 242.348 23.582C242.493 22.9805 242.694 22.388 242.949 21.8047C243.113 21.1849 243.296 20.6107 243.496 20.082C243.697 19.5352 243.897 19.0703 244.098 18.6875C244.316 18.2865 244.535 17.9766 244.754 17.7578C244.973 17.5208 245.201 17.4023 245.438 17.4023C245.674 17.4023 245.848 17.4753 245.957 17.6211C246.085 17.7487 246.148 17.931 246.148 18.168V18.332L244.809 21.5312C244.79 21.5677 244.745 21.6406 244.672 21.75C244.599 21.8411 244.562 21.9049 244.562 21.9414V22.0508C244.526 22.1419 244.471 22.2878 244.398 22.4883C244.344 22.6888 244.28 22.9076 244.207 23.1445C244.134 23.3633 244.061 23.5729 243.988 23.7734C243.934 23.974 243.897 24.1107 243.879 24.1836C243.842 24.2747 243.815 24.4206 243.797 24.6211C243.779 24.8216 243.77 24.9492 243.77 25.0039C243.77 25.0404 243.779 25.1133 243.797 25.2227C243.815 25.3138 243.842 25.3776 243.879 25.4141C244.572 25.1406 245.31 24.7305 246.094 24.1836C246.896 23.6185 247.661 22.9896 248.391 22.2969C249.12 21.6042 249.767 20.8841 250.332 20.1367C250.915 19.3711 251.344 18.6328 251.617 17.9219C251.654 17.9036 251.745 17.8763 251.891 17.8398C252.036 17.8034 252.128 17.7852 252.164 17.7852C252.182 17.7852 252.201 17.7852 252.219 17.7852C252.255 17.7852 252.283 17.7852 252.301 17.7852C252.483 17.7852 252.638 17.8672 252.766 18.0312C252.911 18.1953 252.984 18.3594 252.984 18.5234C252.984 18.5417 252.975 18.5781 252.957 18.6328C252.957 18.6875 252.957 18.724 252.957 18.7422C252.629 19.526 252.346 20.2734 252.109 20.9844C251.872 21.6953 251.754 22.4609 251.754 23.2812C251.754 23.6276 251.763 23.9102 251.781 24.1289C251.818 24.3294 251.9 24.6211 252.027 25.0039C252.046 25.0951 252.082 25.1406 252.137 25.1406C252.21 25.1406 252.273 25.1406 252.328 25.1406C252.875 25.1406 253.422 24.931 253.969 24.5117C254.516 24.0924 255.008 23.582 255.445 22.9805C255.901 22.3607 256.266 21.7135 256.539 21.0391C256.812 20.3646 256.949 19.7721 256.949 19.2617C256.949 18.9883 256.922 18.7331 256.867 18.4961C256.831 18.2409 256.812 17.9857 256.812 17.7305C256.812 17.4935 256.876 17.2839 257.004 17.1016C257.132 16.9193 257.314 16.8281 257.551 16.8281C257.715 16.8281 257.87 16.8828 258.016 16.9922C258.161 17.0833 258.298 17.1927 258.426 17.3203C258.572 17.4479 258.717 17.5664 258.863 17.6758C259.009 17.7852 259.173 17.8672 259.355 17.9219C259.793 17.9219 260.13 17.9219 260.367 17.9219C260.622 17.9219 260.814 17.9219 260.941 17.9219C261.087 17.9219 261.206 17.9128 261.297 17.8945C261.388 17.8581 261.497 17.8125 261.625 17.7578C261.753 17.6849 261.926 17.5938 262.145 17.4844C262.382 17.375 262.691 17.2292 263.074 17.0469C263.092 17.0286 263.129 17.0195 263.184 17.0195C263.238 17.0195 263.275 17.0195 263.293 17.0195C263.457 17.0195 263.603 17.0742 263.73 17.1836C263.858 17.293 263.922 17.4388 263.922 17.6211C263.922 17.8216 263.867 17.9857 263.758 18.1133C263.667 18.2227 263.548 18.3229 263.402 18.4141C263.257 18.487 263.092 18.5599 262.91 18.6328C262.746 18.6875 262.591 18.7331 262.445 18.7695C262.026 18.9336 261.698 19.0521 261.461 19.125C261.242 19.1797 261.069 19.2253 260.941 19.2617C260.832 19.2799 260.741 19.2982 260.668 19.3164C260.595 19.3164 260.486 19.3164 260.34 19.3164C260.212 19.3164 260.03 19.3255 259.793 19.3438C259.574 19.3438 259.255 19.362 258.836 19.3984C258.799 19.3984 258.745 19.4167 258.672 19.4531C258.617 19.4896 258.581 19.5169 258.562 19.5352C258.453 20.3555 258.198 21.194 257.797 22.0508C257.414 22.8893 256.913 23.6641 256.293 24.375C255.673 25.0677 254.953 25.6328 254.133 26.0703C253.331 26.5078 252.492 26.7266 251.617 26.7266C251.435 26.7266 251.262 26.6536 251.098 26.5078C250.952 26.3438 250.815 26.1615 250.688 25.9609C250.578 25.7604 250.487 25.5599 250.414 25.3594C250.341 25.1406 250.296 24.9766 250.277 24.8672C250.259 24.7943 250.232 24.6576 250.195 24.457C250.177 24.2565 250.15 24.0378 250.113 23.8008C250.095 23.5638 250.068 23.3542 250.031 23.1719C250.013 22.9714 250.004 22.8255 250.004 22.7344C249.676 23.0807 249.247 23.5 248.719 23.9922C248.19 24.4661 247.616 24.931 246.996 25.3867C246.376 25.8242 245.747 26.207 245.109 26.5352C244.49 26.8451 243.924 27 243.414 27C242.94 27 242.603 26.8359 242.402 26.5078C242.22 26.1797 242.129 25.8242 242.129 25.4414ZM263.047 21.2578C263.065 21.1667 263.12 21.0026 263.211 20.7656C263.302 20.5286 263.393 20.2734 263.484 20C263.594 19.7266 263.694 19.4714 263.785 19.2344C263.876 18.9974 263.94 18.8333 263.977 18.7422C264.086 18.4505 264.186 18.2591 264.277 18.168C264.387 18.0768 264.578 18.0312 264.852 18.0312C265.143 18.0312 265.335 18.1315 265.426 18.332C265.517 18.5326 265.562 18.7695 265.562 19.043C265.562 19.5169 265.49 19.9544 265.344 20.3555C265.216 20.7383 265.07 21.1302 264.906 21.5312C264.742 21.9141 264.587 22.3333 264.441 22.7891C264.314 23.2266 264.25 23.737 264.25 24.3203C264.25 24.3932 264.25 24.5026 264.25 24.6484C264.25 24.776 264.259 24.9128 264.277 25.0586C264.296 25.1862 264.332 25.3047 264.387 25.4141C264.441 25.5052 264.514 25.5508 264.605 25.5508C265.079 25.5508 265.553 25.4596 266.027 25.2773C266.52 25.0768 266.993 24.849 267.449 24.5938C267.923 24.3203 268.37 24.0286 268.789 23.7188C269.227 23.3906 269.618 23.1081 269.965 22.8711C270.092 22.7799 270.184 22.6888 270.238 22.5977C270.311 22.5065 270.375 22.4245 270.43 22.3516C270.484 22.2604 270.548 22.1875 270.621 22.1328C270.712 22.0599 270.849 22.0234 271.031 22.0234C271.268 22.0234 271.46 22.0781 271.605 22.1875C271.77 22.2786 271.852 22.4518 271.852 22.707C271.852 22.8164 271.842 22.9167 271.824 23.0078C271.824 23.099 271.779 23.181 271.688 23.2539C271.669 23.3086 271.596 23.3815 271.469 23.4727C271.359 23.5638 271.241 23.6641 271.113 23.7734C270.986 23.8646 270.867 23.9557 270.758 24.0469C270.648 24.1198 270.566 24.1654 270.512 24.1836C270.493 24.1836 270.439 24.2109 270.348 24.2656C270.275 24.3021 270.229 24.3203 270.211 24.3203C270.193 24.3385 270.165 24.3659 270.129 24.4023C270.111 24.4206 270.102 24.4388 270.102 24.457C269.719 24.7487 269.299 25.0495 268.844 25.3594C268.406 25.651 267.941 25.9245 267.449 26.1797C266.957 26.4167 266.447 26.6172 265.918 26.7812C265.408 26.9453 264.897 27.0273 264.387 27.0273C263.949 27.0273 263.612 26.918 263.375 26.6992C263.156 26.4622 262.992 26.1706 262.883 25.8242C262.773 25.4779 262.71 25.1133 262.691 24.7305C262.673 24.3477 262.664 24.0013 262.664 23.6914L263.047 21.2578ZM264.359 14.0664C264.359 13.7383 264.423 13.5195 264.551 13.4102C264.678 13.3008 264.906 13.2461 265.234 13.2461C265.398 13.2461 265.562 13.2826 265.727 13.3555C265.891 13.4102 265.973 13.556 265.973 13.793C265.973 14.0299 265.854 14.2487 265.617 14.4492C265.398 14.6497 265.18 14.75 264.961 14.75C264.742 14.75 264.587 14.6862 264.496 14.5586C264.405 14.4128 264.359 14.2487 264.359 14.0664ZM273.055 19.6719C273.091 19.599 273.164 19.4896 273.273 19.3438C273.383 19.1797 273.438 19.043 273.438 18.9336V18.8516C273.438 18.8333 273.419 18.8151 273.383 18.7969C273.346 18.7604 273.319 18.7422 273.301 18.7422H272.809C272.335 18.888 271.806 18.9883 271.223 19.043C270.621 19.0977 270.047 19.1159 269.5 19.0977C268.935 19.0794 268.452 19.0339 268.051 18.9609C267.65 18.8698 267.413 18.7695 267.34 18.6602C267.267 18.5508 267.404 18.4232 267.75 18.2773C268.096 18.1133 268.753 17.9492 269.719 17.7852C269.773 17.7852 269.901 17.7669 270.102 17.7305C270.284 17.6758 270.493 17.6302 270.73 17.5938C270.949 17.5573 271.159 17.5208 271.359 17.4844C271.56 17.4297 271.688 17.4023 271.742 17.4023C271.815 17.3841 271.97 17.375 272.207 17.375C272.444 17.3568 272.681 17.3385 272.918 17.3203C273.173 17.3021 273.41 17.293 273.629 17.293C273.866 17.293 274.03 17.293 274.121 17.293L274.258 17.1289L276.391 13.5469C276.464 13.4193 276.591 13.319 276.773 13.2461C276.974 13.1732 277.129 13.1367 277.238 13.1367C277.475 13.1367 277.639 13.237 277.73 13.4375C277.822 13.6198 277.867 13.8021 277.867 13.9844C277.867 14.0026 277.858 14.0208 277.84 14.0391C277.84 14.0573 277.84 14.0755 277.84 14.0938V14.2031L276.637 17.1289V17.293C276.673 17.1836 276.737 17.1289 276.828 17.1289C276.938 17.1289 277.02 17.1289 277.074 17.1289C277.348 17.1289 277.612 17.2201 277.867 17.4023C278.122 17.5846 278.25 17.8307 278.25 18.1406C278.25 18.2865 278.204 18.4049 278.113 18.4961C278.022 18.5872 277.913 18.6602 277.785 18.7148C277.658 18.7695 277.521 18.8151 277.375 18.8516C277.229 18.8698 277.102 18.8789 276.992 18.8789C276.773 18.8789 276.564 18.8516 276.363 18.7969C276.181 18.7422 275.98 18.7148 275.762 18.7148C275.561 18.7148 275.379 18.8242 275.215 19.043C275.051 19.2435 274.896 19.5169 274.75 19.8633C274.622 20.1914 274.513 20.5651 274.422 20.9844C274.331 21.4036 274.249 21.8138 274.176 22.2148C274.103 22.6159 274.048 22.9896 274.012 23.3359C273.993 23.6823 273.984 23.9466 273.984 24.1289C273.984 24.2018 273.984 24.3477 273.984 24.5664C274.003 24.7852 274.012 24.931 274.012 25.0039C274.03 25.1133 274.076 25.2135 274.148 25.3047C274.221 25.3776 274.294 25.4596 274.367 25.5508H274.996C275.725 25.5508 276.445 25.3867 277.156 25.0586C277.885 24.7305 278.569 24.3568 279.207 23.9375C279.243 23.9193 279.326 23.8372 279.453 23.6914C279.599 23.5273 279.754 23.3724 279.918 23.2266C280.082 23.0625 280.228 22.9167 280.355 22.7891C280.501 22.6615 280.602 22.5977 280.656 22.5977C280.784 22.5977 280.902 22.6615 281.012 22.7891C281.121 22.9167 281.176 23.0534 281.176 23.1992C281.176 23.5456 281.048 23.8828 280.793 24.2109C280.556 24.5391 280.246 24.849 279.863 25.1406C279.48 25.4141 279.043 25.6693 278.551 25.9062C278.059 26.1432 277.566 26.3438 277.074 26.5078C276.6 26.6719 276.145 26.7995 275.707 26.8906C275.288 26.9818 274.941 27.0273 274.668 27.0273C274.413 27.0273 274.148 27 273.875 26.9453C273.602 26.8724 273.355 26.763 273.137 26.6172C272.918 26.4714 272.736 26.2891 272.59 26.0703C272.444 25.8516 272.371 25.5781 272.371 25.25V22.2148L273.055 19.6719ZM286.18 20.8477C286.143 20.7747 286.079 20.6745 285.988 20.5469C285.915 20.401 285.824 20.3281 285.715 20.3281C285.368 20.3281 285.013 20.4831 284.648 20.793C284.302 21.0846 283.965 21.4401 283.637 21.8594C283.327 22.2604 283.053 22.6706 282.816 23.0898C282.598 23.5091 282.461 23.8372 282.406 24.0742C282.333 24.3112 282.297 24.5938 282.297 24.9219C282.297 25.25 282.27 25.5599 282.215 25.8516C282.178 26.1432 282.078 26.3893 281.914 26.5898C281.768 26.7904 281.504 26.8906 281.121 26.8906C280.884 26.8906 280.72 26.8451 280.629 26.7539C280.556 26.6445 280.52 26.4714 280.52 26.2344C280.647 25.3594 280.757 24.6393 280.848 24.0742C280.957 23.5091 281.048 23.0169 281.121 22.5977C281.212 22.1602 281.294 21.7409 281.367 21.3398C281.458 20.9206 281.559 20.4193 281.668 19.8359C281.777 19.2526 281.896 18.5417 282.023 17.7031C282.151 16.8464 282.306 15.7617 282.488 14.4492C282.488 14.1758 282.507 13.793 282.543 13.3008C282.579 12.7904 282.643 12.2526 282.734 11.6875C282.844 11.1042 282.98 10.5208 283.145 9.9375C283.309 9.33594 283.509 8.79818 283.746 8.32422C284.001 7.85026 284.293 7.46745 284.621 7.17578C284.949 6.86589 285.332 6.71094 285.77 6.71094C286.079 6.71094 286.326 6.82031 286.508 7.03906C286.708 7.23958 286.854 7.48568 286.945 7.77734C287.055 8.06901 287.118 8.37891 287.137 8.70703C287.155 9.01693 287.164 9.27214 287.164 9.47266C287.164 9.92839 287.128 10.3659 287.055 10.7852C286.982 11.1862 286.891 11.5964 286.781 12.0156C286.672 12.4167 286.553 12.8268 286.426 13.2461C286.298 13.6471 286.189 14.0482 286.098 14.4492L284.348 17.7852L283.363 19.918L283.5 20.2188C283.883 19.763 284.275 19.4167 284.676 19.1797C285.077 18.9245 285.578 18.7786 286.18 18.7422C286.453 18.724 286.681 18.806 286.863 18.9883C287.064 19.1706 287.228 19.4076 287.355 19.6992C287.483 19.9727 287.574 20.2552 287.629 20.5469C287.702 20.8385 287.747 21.0755 287.766 21.2578C287.766 21.3672 287.757 21.5404 287.738 21.7773C287.72 22.0143 287.702 22.2878 287.684 22.5977C287.665 22.9076 287.647 23.2357 287.629 23.582C287.629 23.9102 287.647 24.2201 287.684 24.5117C287.72 24.8034 287.793 25.0586 287.902 25.2773C288.03 25.4779 288.194 25.5964 288.395 25.6328C289.105 25.5417 289.734 25.4232 290.281 25.2773C290.846 25.1133 291.339 24.8945 291.758 24.6211C292.177 24.3294 292.523 23.9648 292.797 23.5273C293.089 23.0898 293.307 22.5521 293.453 21.9141C293.581 21.7318 293.763 21.6406 294 21.6406C294.273 21.6406 294.447 21.7409 294.52 21.9414C294.611 22.1419 294.656 22.3607 294.656 22.5977C294.656 23.3268 294.419 23.974 293.945 24.5391C293.49 25.0859 292.906 25.5417 292.195 25.9062C291.484 26.2708 290.719 26.5534 289.898 26.7539C289.078 26.9362 288.322 27.0273 287.629 27.0273C287.191 27.0273 286.891 26.8815 286.727 26.5898C286.562 26.2799 286.462 25.9154 286.426 25.4961C286.408 25.0586 286.408 24.6211 286.426 24.1836C286.444 23.7461 286.444 23.3906 286.426 23.1172C286.426 23.026 286.417 22.8802 286.398 22.6797C286.38 22.4609 286.353 22.2331 286.316 21.9961C286.298 21.7591 286.271 21.5312 286.234 21.3125C286.198 21.0938 286.18 20.9388 286.18 20.8477ZM283.938 14.2852C283.938 14.3398 283.938 14.431 283.938 14.5586C283.938 14.6862 283.938 14.8047 283.938 14.9141C283.956 15.0234 283.965 15.1237 283.965 15.2148C283.965 15.306 283.965 15.3607 283.965 15.3789L284.102 15.5156C284.284 15.4062 284.448 15.2148 284.594 14.9414C284.758 14.668 284.904 14.3398 285.031 13.957C285.159 13.5742 285.268 13.1732 285.359 12.7539C285.469 12.3164 285.56 11.888 285.633 11.4688C285.706 11.0495 285.76 10.6667 285.797 10.3203C285.852 9.97396 285.879 9.69141 285.879 9.47266C285.879 9.39974 285.87 9.26302 285.852 9.0625C285.852 8.86198 285.842 8.74349 285.824 8.70703L285.688 8.43359C285.25 8.77995 284.913 9.1901 284.676 9.66406C284.439 10.138 284.266 10.6302 284.156 11.1406C284.047 11.651 283.983 12.1797 283.965 12.7266C283.947 13.2734 283.938 13.793 283.938 14.2852ZM313.086 22.4609L307.754 25.9336H307.59C307.408 25.9336 307.225 25.888 307.043 25.7969C306.879 25.7057 306.797 25.5508 306.797 25.332C306.797 25.1862 306.833 25.0586 306.906 24.9492C306.997 24.8216 307.107 24.7122 307.234 24.6211C307.38 24.5117 307.645 24.3477 308.027 24.1289C308.41 23.9102 308.811 23.6732 309.23 23.418C309.65 23.1445 310.051 22.8984 310.434 22.6797C310.835 22.4609 311.108 22.306 311.254 22.2148C311.327 22.1419 311.436 22.0599 311.582 21.9688C311.728 21.8594 311.855 21.7591 311.965 21.668C312.092 21.5586 312.202 21.4674 312.293 21.3945C312.384 21.3216 312.43 21.276 312.43 21.2578L310.324 16.9922C310.233 16.8646 310.178 16.7643 310.16 16.6914C310.16 16.6003 310.16 16.4818 310.16 16.3359C310.16 15.7891 310.424 15.5156 310.953 15.5156C311.026 15.5156 311.19 15.5703 311.445 15.6797C311.719 15.7708 312.047 15.9076 312.43 16.0898C312.812 16.2539 313.214 16.4362 313.633 16.6367C314.052 16.8372 314.435 17.0195 314.781 17.1836C315.128 17.3477 315.419 17.4935 315.656 17.6211C315.893 17.7305 316.012 17.7852 316.012 17.7852L318.445 15.2695C318.5 15.0508 318.655 14.7865 318.91 14.4766C319.184 14.1667 319.466 13.8385 319.758 13.4922C320.049 13.1458 320.305 12.7995 320.523 12.4531C320.742 12.0885 320.852 11.7604 320.852 11.4688V11.3867L318.965 6.98438C318.783 6.5651 318.664 6.11849 318.609 5.64453C318.573 5.15234 318.555 4.66927 318.555 4.19531C318.555 3.79427 318.618 3.39323 318.746 2.99219C318.874 2.57292 319.056 2.19922 319.293 1.87109C319.548 1.54297 319.849 1.27865 320.195 1.07812C320.542 0.859375 320.952 0.75 321.426 0.75C321.918 0.75 322.319 0.895833 322.629 1.1875C322.957 1.46094 323.212 1.80729 323.395 2.22656C323.595 2.64583 323.732 3.09245 323.805 3.56641C323.878 4.02214 323.914 4.44141 323.914 4.82422C323.914 5.91797 323.786 6.96615 323.531 7.96875C323.294 8.95312 322.966 9.96484 322.547 11.0039V11.3867C322.966 12.1706 323.395 12.9818 323.832 13.8203C324.27 14.6589 324.661 15.5339 325.008 16.4453C325.354 17.3385 325.637 18.2409 325.855 19.1523C326.074 20.0456 326.184 20.9479 326.184 21.8594C326.184 22.5703 326.065 23.2357 325.828 23.8555C325.609 24.457 325.29 24.9857 324.871 25.4414C324.452 25.8971 323.941 26.2526 323.34 26.5078C322.757 26.763 322.1 26.8906 321.371 26.8906C320.551 26.8906 319.767 26.7721 319.02 26.5352C318.29 26.2799 317.579 25.9518 316.887 25.5508C316.212 25.1315 315.565 24.6576 314.945 24.1289C314.344 23.6003 313.779 23.0443 313.25 22.4609H313.086ZM314.453 21.5312C314.453 21.5495 314.499 21.6133 314.59 21.7227C314.699 21.832 314.818 21.9596 314.945 22.1055C315.091 22.2331 315.237 22.3698 315.383 22.5156C315.529 22.6615 315.656 22.7799 315.766 22.8711C315.82 22.9258 315.911 23.0078 316.039 23.1172C316.185 23.2083 316.322 23.3177 316.449 23.4453C316.595 23.5547 316.723 23.6641 316.832 23.7734C316.96 23.8646 317.042 23.9193 317.078 23.9375C317.188 23.9922 317.352 24.0833 317.57 24.2109C317.789 24.3385 318.008 24.4661 318.227 24.5938C318.445 24.7214 318.655 24.8398 318.855 24.9492C319.056 25.0586 319.174 25.1224 319.211 25.1406C319.63 25.3229 320.013 25.4414 320.359 25.4961C320.724 25.5326 321.089 25.5508 321.453 25.5508C322 25.5508 322.465 25.4505 322.848 25.25C323.249 25.0312 323.577 24.7487 323.832 24.4023C324.087 24.0378 324.27 23.6276 324.379 23.1719C324.507 22.6979 324.57 22.224 324.57 21.75C324.57 21.2396 324.525 20.7109 324.434 20.1641C324.361 19.6172 324.233 19.0977 324.051 18.6055L321.672 12.8906L319.512 15.9258L314.453 21.4219V21.5312ZM312.32 17.9219C312.32 17.9583 312.329 18.0312 312.348 18.1406C312.384 18.2318 312.411 18.2956 312.43 18.332C312.503 18.4596 312.594 18.6328 312.703 18.8516C312.831 19.0703 312.949 19.2799 313.059 19.4805C313.186 19.6628 313.286 19.8359 313.359 20C313.451 20.1458 313.505 20.2188 313.523 20.2188H313.633C313.688 20.2188 313.797 20.1458 313.961 20C314.125 19.8359 314.298 19.6719 314.48 19.5078C314.663 19.3255 314.827 19.1615 314.973 19.0156C315.118 18.8516 315.201 18.7604 315.219 18.7422L315.082 18.6055L312.703 17.9219H312.32ZM320.004 4.16797C320.004 5.1888 320.159 6.11849 320.469 6.95703C320.779 7.77734 321.171 8.63411 321.645 9.52734C321.736 9.47266 321.818 9.36328 321.891 9.19922C321.964 9.01693 322.027 8.82552 322.082 8.625C322.137 8.40625 322.182 8.20573 322.219 8.02344C322.255 7.84115 322.283 7.73177 322.301 7.69531C322.301 7.65885 322.31 7.56771 322.328 7.42188C322.365 7.27604 322.392 7.11198 322.41 6.92969C322.428 6.72917 322.447 6.53776 322.465 6.35547C322.501 6.17318 322.529 6.03646 322.547 5.94531V5.86328C322.547 5.79036 322.538 5.5625 322.52 5.17969C322.52 4.79688 322.492 4.38672 322.438 3.94922C322.383 3.49349 322.283 3.09245 322.137 2.74609C321.991 2.38151 321.772 2.19922 321.48 2.19922C321.189 2.19922 320.943 2.25391 320.742 2.36328C320.542 2.47266 320.387 2.61849 320.277 2.80078C320.186 2.98307 320.113 3.19271 320.059 3.42969C320.022 3.66667 320.004 3.91276 320.004 4.16797ZM327.441 26.1797C327.441 26.125 327.441 25.9883 327.441 25.7695C327.441 25.5508 327.441 25.4049 327.441 25.332C327.132 24.2383 327.086 23.1628 327.305 22.1055C327.542 21.0482 327.952 20.1003 328.535 19.2617C329.137 18.4049 329.893 17.694 330.805 17.1289C331.734 16.5456 332.746 16.1901 333.84 16.0625H334.332C334.733 16.0625 335.061 16.1536 335.316 16.3359C335.59 16.5 335.799 16.7188 335.945 16.9922C336.109 17.2656 336.219 17.5755 336.273 17.9219C336.346 18.2682 336.383 18.6146 336.383 18.9609C336.383 19.4349 336.328 19.8997 336.219 20.3555C336.128 20.793 336.018 21.2396 335.891 21.6953C335.781 22.151 335.672 22.6068 335.562 23.0625C335.471 23.5 335.426 23.9648 335.426 24.457V24.6211C335.444 24.6576 335.462 24.7669 335.48 24.9492C335.517 25.1133 335.544 25.2135 335.562 25.25C335.599 25.25 335.69 25.2591 335.836 25.2773C335.982 25.2773 336.073 25.2773 336.109 25.2773C336.292 25.2773 336.465 25.2773 336.629 25.2773C336.811 25.2591 336.993 25.2135 337.176 25.1406L342.371 22.7344C342.389 22.7344 342.417 22.7344 342.453 22.7344C342.508 22.7161 342.544 22.707 342.562 22.707C342.745 22.707 342.891 22.7617 343 22.8711C343.128 22.9805 343.191 23.1263 343.191 23.3086C343.191 23.3997 343.182 23.4909 343.164 23.582C343.164 23.6549 343.118 23.7279 343.027 23.8008C342.9 23.8919 342.663 24.0195 342.316 24.1836C341.988 24.3477 341.633 24.5299 341.25 24.7305C340.867 24.931 340.503 25.1224 340.156 25.3047C339.828 25.487 339.591 25.6055 339.445 25.6602C339.19 25.806 338.908 25.9427 338.598 26.0703C338.288 26.1797 337.969 26.2891 337.641 26.3984C337.312 26.5078 336.984 26.599 336.656 26.6719C336.346 26.7266 336.064 26.7539 335.809 26.7539C335.408 26.7539 335.079 26.6901 334.824 26.5625C334.569 26.4167 334.378 26.2344 334.25 26.0156C334.122 25.7786 334.031 25.5052 333.977 25.1953C333.94 24.8672 333.94 24.5299 333.977 24.1836C333.612 24.4753 333.22 24.7852 332.801 25.1133C332.382 25.4414 331.944 25.7422 331.488 26.0156C331.033 26.2891 330.568 26.526 330.094 26.7266C329.62 26.9271 329.137 27.0273 328.645 27.0273C328.371 27.0273 328.125 26.9635 327.906 26.8359C327.688 26.6901 327.533 26.4714 327.441 26.1797ZM328.918 25.6055C329.337 25.6055 329.802 25.487 330.312 25.25C330.823 24.9948 331.324 24.6849 331.816 24.3203C332.309 23.9557 332.755 23.5729 333.156 23.1719C333.557 22.7526 333.867 22.3789 334.086 22.0508C334.104 21.5039 334.177 20.9844 334.305 20.4922C334.451 19.9818 334.523 19.4622 334.523 18.9336C334.523 18.8971 334.514 18.8424 334.496 18.7695C334.496 18.6966 334.496 18.6419 334.496 18.6055C334.259 18.4049 334.059 18.2865 333.895 18.25C333.73 18.2135 333.512 18.1953 333.238 18.1953C333.202 18.1953 333.12 18.1953 332.992 18.1953C332.883 18.1953 332.81 18.2044 332.773 18.2227C332.664 18.3138 332.482 18.487 332.227 18.7422C331.971 18.9792 331.698 19.2435 331.406 19.5352C331.133 19.8268 330.868 20.1003 330.613 20.3555C330.376 20.6107 330.212 20.7839 330.121 20.875C330.103 20.875 330.066 20.9115 330.012 20.9844C329.957 21.0391 329.893 21.112 329.82 21.2031C329.766 21.2943 329.711 21.3854 329.656 21.4766C329.62 21.5495 329.592 21.6133 329.574 21.668L328.918 24.8672V25.6055ZM342.262 26.3438C342.316 25.888 342.389 25.4596 342.48 25.0586C342.572 24.6393 342.672 24.2292 342.781 23.8281C342.891 23.4271 343.009 23.0169 343.137 22.5977C343.283 22.1602 343.438 21.668 343.602 21.1211V20.9844C342.872 21.4036 342.353 21.6133 342.043 21.6133C341.751 21.6133 341.605 21.5039 341.605 21.2852C341.587 21.0664 341.678 20.7747 341.879 20.4102C342.098 20.0456 342.353 19.7083 342.645 19.3984C342.954 19.0885 343.264 18.8424 343.574 18.6602C343.902 18.4779 344.158 18.4505 344.34 18.5781C344.559 18.5781 344.732 18.6146 344.859 18.6875C345.005 18.7604 345.16 18.8698 345.324 19.0156C345.743 18.6875 346.135 18.4232 346.5 18.2227C346.865 18.0221 347.302 17.9219 347.812 17.9219C348.615 17.9219 349.216 18.1042 349.617 18.4688C350.036 18.8333 350.337 19.4167 350.52 20.2188C350.829 19.9089 351.112 19.6263 351.367 19.3711C351.622 19.0977 351.896 18.8698 352.188 18.6875C352.497 18.487 352.826 18.3411 353.172 18.25C353.518 18.1406 353.91 18.0859 354.348 18.0859C354.712 18.0859 355.068 18.2227 355.414 18.4961C355.76 18.7695 356.007 19.0703 356.152 19.3984C356.152 19.4714 356.152 19.6354 356.152 19.8906C356.152 20.1458 356.152 20.319 356.152 20.4102C356.152 21.0299 356.079 21.6315 355.934 22.2148C355.788 22.7799 355.715 23.3633 355.715 23.9648C355.715 24.2201 355.742 24.4844 355.797 24.7578C355.87 25.013 356.07 25.1406 356.398 25.1406C356.836 25.1406 357.228 25.0495 357.574 24.8672C357.939 24.6849 358.267 24.4661 358.559 24.2109C358.868 23.9375 359.142 23.6458 359.379 23.3359C359.634 23.026 359.862 22.7435 360.062 22.4883C360.281 22.2148 360.482 21.987 360.664 21.8047C360.846 21.6224 361.029 21.5312 361.211 21.5312C361.339 21.5312 361.475 21.5859 361.621 21.6953C361.785 21.7865 361.867 21.9049 361.867 22.0508C361.867 22.069 361.858 22.0964 361.84 22.1328C361.84 22.1693 361.84 22.1966 361.84 22.2148C361.658 22.7799 361.393 23.3177 361.047 23.8281C360.701 24.3385 360.299 24.7943 359.844 25.1953C359.388 25.5781 358.878 25.888 358.312 26.125C357.766 26.3438 357.182 26.4531 356.562 26.4531C355.979 26.4531 355.487 26.3802 355.086 26.2344C354.685 26.0703 354.375 25.7057 354.156 25.1406C354.156 25.0859 354.147 24.9674 354.129 24.7852C354.129 24.5846 354.129 24.4661 354.129 24.4297C354.129 23.737 354.193 23.0716 354.32 22.4336C354.466 21.7956 354.539 21.1484 354.539 20.4922C354.539 20.4375 354.53 20.319 354.512 20.1367C354.512 19.9544 354.512 19.8359 354.512 19.7812C354.439 19.6901 354.32 19.6445 354.156 19.6445C354.01 19.6445 353.874 19.6445 353.746 19.6445C353.363 19.6445 352.999 19.7812 352.652 20.0547C352.306 20.3281 351.987 20.6745 351.695 21.0938C351.404 21.513 351.139 21.987 350.902 22.5156C350.684 23.026 350.492 23.5456 350.328 24.0742C350.164 24.5846 350.027 25.0677 349.918 25.5234C349.827 25.9609 349.772 26.3255 349.754 26.6172L349.453 26.8906H348.523C348.359 26.8906 348.268 26.8086 348.25 26.6445C348.25 26.4622 348.25 26.3255 348.25 26.2344C348.25 25.7969 348.277 25.3594 348.332 24.9219C348.405 24.4661 348.478 24.0195 348.551 23.582C348.642 23.1263 348.724 22.6706 348.797 22.2148C348.87 21.7591 348.915 21.3125 348.934 20.875C348.915 20.7292 348.897 20.5742 348.879 20.4102C348.861 20.2279 348.824 20.0638 348.77 19.918C348.715 19.7721 348.633 19.6536 348.523 19.5625C348.414 19.4531 348.259 19.3984 348.059 19.3984C347.767 19.3984 347.484 19.4531 347.211 19.5625C346.938 19.6719 346.682 19.8177 346.445 20C346.227 20.1641 346.026 20.3737 345.844 20.6289C345.68 20.8659 345.561 21.1302 345.488 21.4219L343.848 26.7266L343.602 27C343.602 27 343.547 27 343.438 27C343.328 27.0182 343.246 27.0273 343.191 27.0273C342.991 27.0273 342.781 27.0091 342.562 26.9727C342.362 26.918 342.262 26.7448 342.262 26.4531V26.3438ZM360.91 25.4414C360.91 24.8034 360.983 24.1836 361.129 23.582C361.275 22.9805 361.475 22.388 361.73 21.8047C361.895 21.1849 362.077 20.6107 362.277 20.082C362.478 19.5352 362.678 19.0703 362.879 18.6875C363.098 18.2865 363.316 17.9766 363.535 17.7578C363.754 17.5208 363.982 17.4023 364.219 17.4023C364.456 17.4023 364.629 17.4753 364.738 17.6211C364.866 17.7487 364.93 17.931 364.93 18.168V18.332L363.59 21.5312C363.572 21.5677 363.526 21.6406 363.453 21.75C363.38 21.8411 363.344 21.9049 363.344 21.9414V22.0508C363.307 22.1419 363.253 22.2878 363.18 22.4883C363.125 22.6888 363.061 22.9076 362.988 23.1445C362.915 23.3633 362.842 23.5729 362.77 23.7734C362.715 23.974 362.678 24.1107 362.66 24.1836C362.624 24.2747 362.596 24.4206 362.578 24.6211C362.56 24.8216 362.551 24.9492 362.551 25.0039C362.551 25.0404 362.56 25.1133 362.578 25.2227C362.596 25.3138 362.624 25.3776 362.66 25.4141C363.353 25.1406 364.091 24.7305 364.875 24.1836C365.677 23.6185 366.443 22.9896 367.172 22.2969C367.901 21.6042 368.548 20.8841 369.113 20.1367C369.697 19.3711 370.125 18.6328 370.398 17.9219C370.435 17.9036 370.526 17.8763 370.672 17.8398C370.818 17.8034 370.909 17.7852 370.945 17.7852C370.964 17.7852 370.982 17.7852 371 17.7852C371.036 17.7852 371.064 17.7852 371.082 17.7852C371.264 17.7852 371.419 17.8672 371.547 18.0312C371.693 18.1953 371.766 18.3594 371.766 18.5234C371.766 18.5417 371.757 18.5781 371.738 18.6328C371.738 18.6875 371.738 18.724 371.738 18.7422C371.41 19.526 371.128 20.2734 370.891 20.9844C370.654 21.6953 370.535 22.4609 370.535 23.2812C370.535 23.6276 370.544 23.9102 370.562 24.1289C370.599 24.3294 370.681 24.6211 370.809 25.0039C370.827 25.0951 370.863 25.1406 370.918 25.1406C370.991 25.1406 371.055 25.1406 371.109 25.1406C371.656 25.1406 372.203 24.931 372.75 24.5117C373.297 24.0924 373.789 23.582 374.227 22.9805C374.682 22.3607 375.047 21.7135 375.32 21.0391C375.594 20.3646 375.73 19.7721 375.73 19.2617C375.73 18.9883 375.703 18.7331 375.648 18.4961C375.612 18.2409 375.594 17.9857 375.594 17.7305C375.594 17.4935 375.658 17.2839 375.785 17.1016C375.913 16.9193 376.095 16.8281 376.332 16.8281C376.496 16.8281 376.651 16.8828 376.797 16.9922C376.943 17.0833 377.079 17.1927 377.207 17.3203C377.353 17.4479 377.499 17.5664 377.645 17.6758C377.79 17.7852 377.954 17.8672 378.137 17.9219C378.574 17.9219 378.911 17.9219 379.148 17.9219C379.404 17.9219 379.595 17.9219 379.723 17.9219C379.868 17.9219 379.987 17.9128 380.078 17.8945C380.169 17.8581 380.279 17.8125 380.406 17.7578C380.534 17.6849 380.707 17.5938 380.926 17.4844C381.163 17.375 381.473 17.2292 381.855 17.0469C381.874 17.0286 381.91 17.0195 381.965 17.0195C382.02 17.0195 382.056 17.0195 382.074 17.0195C382.238 17.0195 382.384 17.0742 382.512 17.1836C382.639 17.293 382.703 17.4388 382.703 17.6211C382.703 17.8216 382.648 17.9857 382.539 18.1133C382.448 18.2227 382.329 18.3229 382.184 18.4141C382.038 18.487 381.874 18.5599 381.691 18.6328C381.527 18.6875 381.372 18.7331 381.227 18.7695C380.807 18.9336 380.479 19.0521 380.242 19.125C380.023 19.1797 379.85 19.2253 379.723 19.2617C379.613 19.2799 379.522 19.2982 379.449 19.3164C379.376 19.3164 379.267 19.3164 379.121 19.3164C378.993 19.3164 378.811 19.3255 378.574 19.3438C378.355 19.3438 378.036 19.362 377.617 19.3984C377.581 19.3984 377.526 19.4167 377.453 19.4531C377.398 19.4896 377.362 19.5169 377.344 19.5352C377.234 20.3555 376.979 21.194 376.578 22.0508C376.195 22.8893 375.694 23.6641 375.074 24.375C374.454 25.0677 373.734 25.6328 372.914 26.0703C372.112 26.5078 371.273 26.7266 370.398 26.7266C370.216 26.7266 370.043 26.6536 369.879 26.5078C369.733 26.3438 369.596 26.1615 369.469 25.9609C369.359 25.7604 369.268 25.5599 369.195 25.3594C369.122 25.1406 369.077 24.9766 369.059 24.8672C369.04 24.7943 369.013 24.6576 368.977 24.457C368.958 24.2565 368.931 24.0378 368.895 23.8008C368.876 23.5638 368.849 23.3542 368.812 23.1719C368.794 22.9714 368.785 22.8255 368.785 22.7344C368.457 23.0807 368.029 23.5 367.5 23.9922C366.971 24.4661 366.397 24.931 365.777 25.3867C365.158 25.8242 364.529 26.207 363.891 26.5352C363.271 26.8451 362.706 27 362.195 27C361.721 27 361.384 26.8359 361.184 26.5078C361.001 26.1797 360.91 25.8242 360.91 25.4414ZM380.324 33.8906C380.324 32.7057 380.589 31.612 381.117 30.6094C381.628 29.625 382.284 28.7227 383.086 27.9023C383.906 27.1003 384.809 26.3802 385.793 25.7422C386.796 25.1042 387.771 24.5482 388.719 24.0742L389.512 21.5312C389.421 21.6406 389.238 21.8229 388.965 22.0781C388.71 22.3333 388.436 22.6068 388.145 22.8984C387.853 23.1719 387.57 23.4362 387.297 23.6914C387.023 23.9284 386.832 24.0924 386.723 24.1836C386.504 24.3659 386.24 24.5755 385.93 24.8125C385.62 25.0495 385.283 25.2773 384.918 25.4961C384.572 25.6966 384.216 25.8698 383.852 26.0156C383.487 26.1432 383.159 26.207 382.867 26.207C382.466 26.207 382.202 26.1159 382.074 25.9336C381.965 25.7331 381.91 25.4505 381.91 25.0859C381.91 24.7943 381.928 24.4935 381.965 24.1836C382.02 23.8737 382.01 23.5638 381.938 23.2539L383.004 20.3555C383.168 20.1914 383.323 19.9362 383.469 19.5898C383.633 19.2435 383.788 18.8971 383.934 18.5508C384.098 18.2044 384.262 17.9036 384.426 17.6484C384.608 17.3932 384.799 17.2656 385 17.2656C385.219 17.2656 385.401 17.3294 385.547 17.457C385.711 17.5846 385.793 17.7669 385.793 18.0039C385.793 18.1862 385.766 18.3503 385.711 18.4961C385.674 18.6237 385.611 18.7969 385.52 19.0156C385.283 19.5078 385.046 19.9727 384.809 20.4102C384.59 20.8477 384.38 21.2852 384.18 21.7227C383.997 22.1602 383.842 22.6159 383.715 23.0898C383.605 23.5456 383.551 24.056 383.551 24.6211H383.66C383.66 24.6211 383.715 24.5938 383.824 24.5391C383.934 24.4661 384.052 24.3932 384.18 24.3203C384.326 24.2292 384.471 24.138 384.617 24.0469C384.763 23.9557 384.891 23.8737 385 23.8008C386.003 23.1445 386.887 22.3789 387.652 21.5039C388.418 20.6107 389.174 19.6901 389.922 18.7422C389.995 18.6328 390.059 18.5508 390.113 18.4961C390.168 18.4414 390.214 18.4049 390.25 18.3867C390.286 18.3503 390.332 18.332 390.387 18.332C390.441 18.332 390.523 18.332 390.633 18.332C390.888 18.332 391.089 18.3867 391.234 18.4961C391.398 18.5872 391.499 18.806 391.535 19.1523C391.553 19.3893 391.535 19.681 391.48 20.0273C391.426 20.3555 391.353 20.6836 391.262 21.0117C391.171 21.3398 391.07 21.668 390.961 21.9961C390.87 22.306 390.788 22.5521 390.715 22.7344V23.1445C390.751 23.1263 390.833 23.099 390.961 23.0625C391.107 23.026 391.207 22.9987 391.262 22.9805C391.371 22.9622 391.672 22.862 392.164 22.6797C392.656 22.4974 393.185 22.306 393.75 22.1055C394.333 21.8867 394.871 21.6862 395.363 21.5039C395.855 21.3216 396.165 21.2031 396.293 21.1484H396.348C396.475 21.1484 396.585 21.194 396.676 21.2852C396.785 21.3763 396.84 21.4857 396.84 21.6133C396.84 21.7409 396.794 21.8503 396.703 21.9414C396.63 22.0326 396.539 22.1146 396.43 22.1875C396.32 22.2422 396.202 22.2969 396.074 22.3516C395.947 22.4062 395.837 22.4518 395.746 22.4883C395.618 22.5612 395.436 22.6523 395.199 22.7617C394.962 22.8529 394.689 22.9622 394.379 23.0898C394.087 23.1992 393.777 23.3268 393.449 23.4727C393.121 23.6185 392.802 23.7552 392.492 23.8828C391.745 24.1927 390.934 24.5208 390.059 24.8672L387.652 33.9453C387.543 34.3828 387.333 34.8385 387.023 35.3125C386.732 35.7865 386.385 36.224 385.984 36.625C385.583 37.026 385.137 37.3451 384.645 37.582C384.171 37.8372 383.688 37.9648 383.195 37.9648C382.685 37.9648 382.247 37.8281 381.883 37.5547C381.518 37.2995 381.217 36.9622 380.98 36.543C380.743 36.1419 380.579 35.7044 380.488 35.2305C380.379 34.7565 380.324 34.3099 380.324 33.8906ZM381.801 33.8906C381.801 34.1276 381.819 34.3919 381.855 34.6836C381.91 34.9753 382.001 35.2578 382.129 35.5312C382.257 35.8047 382.411 36.0326 382.594 36.2148C382.794 36.3971 383.049 36.4883 383.359 36.4883C383.76 36.4883 384.125 36.3607 384.453 36.1055C384.799 35.8685 385.1 35.5677 385.355 35.2031C385.629 34.8568 385.857 34.4831 386.039 34.082C386.221 33.681 386.367 33.3255 386.477 33.0156C386.531 32.7969 386.613 32.487 386.723 32.0859C386.832 31.7031 386.932 31.3203 387.023 30.9375C387.133 30.5547 387.224 30.2083 387.297 29.8984C387.37 29.6068 387.406 29.4336 387.406 29.3789V29.2695L388.199 25.8242C387.47 26.0612 386.723 26.4622 385.957 27.0273C385.21 27.5924 384.526 28.2487 383.906 28.9961C383.286 29.7435 382.776 30.5456 382.375 31.4023C381.992 32.2591 381.801 33.0885 381.801 33.8906ZM395.855 22.0508C395.855 22.0508 395.865 22.0417 395.883 22.0234C395.919 21.987 395.947 21.9596 395.965 21.9414C396.001 21.7773 396.074 21.4948 396.184 21.0938C396.293 20.6927 396.411 20.2643 396.539 19.8086C396.667 19.3346 396.785 18.8971 396.895 18.4961C397.022 18.0951 397.113 17.8216 397.168 17.6758C397.186 17.6029 397.241 17.4479 397.332 17.2109C397.441 16.9557 397.56 16.6823 397.688 16.3906C397.815 16.099 397.943 15.8073 398.07 15.5156C398.198 15.224 398.289 15.0052 398.344 14.8594C398.471 14.6042 398.663 14.2669 398.918 13.8477C399.191 13.4284 399.492 13.0365 399.82 12.6719C400.167 12.2891 400.522 11.9609 400.887 11.6875C401.251 11.3958 401.589 11.25 401.898 11.25C402.062 11.25 402.19 11.2956 402.281 11.3867C402.391 11.4779 402.464 11.5872 402.5 11.7148C402.555 11.8242 402.591 11.9518 402.609 12.0977C402.628 12.2435 402.637 12.3711 402.637 12.4805C402.637 13.4284 402.5 14.3763 402.227 15.3242C401.971 16.2539 401.616 17.1471 401.16 18.0039C400.704 18.8607 400.158 19.6719 399.52 20.4375C398.9 21.1849 398.243 21.8594 397.551 22.4609C397.533 22.5156 397.505 22.625 397.469 22.7891C397.451 22.9531 397.432 23.0716 397.414 23.1445V23.1992C397.414 23.5638 397.505 23.8555 397.688 24.0742C397.888 24.293 398.125 24.457 398.398 24.5664C398.672 24.6576 398.973 24.7214 399.301 24.7578C399.647 24.7943 399.975 24.8125 400.285 24.8125C400.449 24.8125 400.686 24.7305 400.996 24.5664C401.324 24.4023 401.652 24.2201 401.98 24.0195C402.327 23.8008 402.664 23.6094 402.992 23.4453C403.32 23.2812 403.566 23.1992 403.73 23.1992C403.895 23.1992 404.022 23.2539 404.113 23.3633C404.204 23.4727 404.25 23.6094 404.25 23.7734C404.25 24.0469 404.04 24.3385 403.621 24.6484C403.202 24.9583 402.719 25.25 402.172 25.5234C401.625 25.7786 401.096 25.9974 400.586 26.1797C400.094 26.362 399.766 26.4531 399.602 26.4531C399.055 26.5625 398.544 26.5716 398.07 26.4805C397.596 26.3711 397.186 26.1979 396.84 25.9609C396.493 25.7057 396.202 25.4049 395.965 25.0586C395.746 24.694 395.609 24.3203 395.555 23.9375L395.855 22.0508ZM401.023 13.9023C400.859 13.9023 400.668 14.0391 400.449 14.3125C400.249 14.5677 400.048 14.8685 399.848 15.2148C399.647 15.5612 399.465 15.8984 399.301 16.2266C399.155 16.5365 399.073 16.7461 399.055 16.8555C399 16.9831 398.918 17.1927 398.809 17.4844C398.699 17.776 398.59 18.0859 398.48 18.4141C398.371 18.724 398.262 19.0247 398.152 19.3164C398.061 19.6081 397.997 19.8177 397.961 19.9453H398.098C398.098 19.9453 398.152 19.8815 398.262 19.7539C398.371 19.6081 398.49 19.444 398.617 19.2617C398.763 19.0794 398.909 18.8971 399.055 18.7148C399.219 18.5143 399.337 18.3503 399.41 18.2227C399.483 18.1133 399.583 17.9492 399.711 17.7305C399.839 17.4935 399.921 17.3477 399.957 17.293C400.03 17.0924 400.13 16.8281 400.258 16.5C400.385 16.1536 400.504 15.8164 400.613 15.4883C400.723 15.1602 400.814 14.8776 400.887 14.6406C400.978 14.3854 401.023 14.2396 401.023 14.2031V13.9023ZM403.73 22.7344C403.767 22.625 403.822 22.4336 403.895 22.1602C403.986 21.8685 404.068 21.5586 404.141 21.2305C404.232 20.9023 404.305 20.5924 404.359 20.3008C404.432 19.9909 404.487 19.7812 404.523 19.6719C404.633 19.2344 404.76 18.7604 404.906 18.25C405.07 17.7396 405.289 17.2656 405.562 16.8281C405.836 16.3906 406.182 16.0352 406.602 15.7617C407.039 15.4701 407.577 15.3242 408.215 15.3242C408.452 15.3242 408.616 15.4154 408.707 15.5977C408.816 15.7617 408.908 15.944 408.98 16.1445C408.98 16.2174 408.98 16.3542 408.98 16.5547C408.999 16.737 409.008 16.8646 409.008 16.9375C409.008 17.7214 408.926 18.4141 408.762 19.0156C408.616 19.6172 408.379 20.1732 408.051 20.6836C407.741 21.194 407.358 21.6771 406.902 22.1328C406.447 22.5703 405.927 23.0352 405.344 23.5273C405.326 23.582 405.298 23.6732 405.262 23.8008C405.225 23.9284 405.207 24.0195 405.207 24.0742V24.1289C405.207 24.457 405.262 24.7214 405.371 24.9219C405.48 25.1224 405.626 25.2865 405.809 25.4141C406.009 25.5234 406.228 25.5964 406.465 25.6328C406.72 25.651 406.993 25.6602 407.285 25.6602C408.142 25.6602 408.962 25.5417 409.746 25.3047C410.53 25.0677 411.25 24.6849 411.906 24.1562C411.997 24.0651 412.107 23.9375 412.234 23.7734C412.38 23.5911 412.526 23.4089 412.672 23.2266C412.818 23.0443 412.973 22.8893 413.137 22.7617C413.301 22.6159 413.474 22.543 413.656 22.543C413.839 22.543 413.948 22.6159 413.984 22.7617C414.021 22.9076 414.039 23.0534 414.039 23.1992C414.039 23.6003 413.911 23.9831 413.656 24.3477C413.419 24.694 413.1 25.013 412.699 25.3047C412.316 25.5781 411.87 25.8242 411.359 26.043C410.867 26.2617 410.375 26.444 409.883 26.5898C409.391 26.7357 408.917 26.8451 408.461 26.918C408.023 26.9909 407.65 27.0273 407.34 27.0273C406.374 27.0273 405.562 26.8724 404.906 26.5625C404.268 26.2344 403.831 25.5872 403.594 24.6211L403.73 22.7344ZM407.641 17.3477C407.276 17.6758 406.984 17.9766 406.766 18.25C406.565 18.5052 406.401 18.7786 406.273 19.0703C406.164 19.3438 406.064 19.6445 405.973 19.9727C405.9 20.3008 405.818 20.6836 405.727 21.1211C406.073 20.8477 406.355 20.5742 406.574 20.3008C406.811 20.0273 407.003 19.7448 407.148 19.4531C407.294 19.1615 407.404 18.8516 407.477 18.5234C407.549 18.1771 407.604 17.7852 407.641 17.3477Z" fill="#444A4A"/>
</svg>
